G04 (created by PCBNEW-RS274X (2012-apr-16-27)-stable) date Sun 20 Jan 2013 09:00:02 PM CET*
G01*
G70*
G90*
%MOIN*%
G04 Gerber Fmt 3.4, Leading zero omitted, Abs format*
%FSLAX34Y34*%
G04 APERTURE LIST*
%ADD10C,0.006000*%
%ADD11C,0.015000*%
%ADD12R,0.037700X0.098700*%
%ADD13R,0.098700X0.037700*%
%ADD14R,0.056000X0.056000*%
%ADD15R,0.040000X0.065000*%
%ADD16R,0.075000X0.055000*%
%ADD17R,0.055000X0.075000*%
%ADD18R,0.045000X0.065000*%
%ADD19R,0.065000X0.045000*%
%ADD20R,0.075000X0.075000*%
%ADD21C,0.075000*%
%ADD22R,0.080000X0.080000*%
%ADD23C,0.080000*%
%ADD24R,0.067200X0.067200*%
%ADD25R,0.095000X0.095000*%
%ADD26C,0.095000*%
%ADD27R,0.086900X0.090800*%
%ADD28O,0.140000X0.080000*%
%ADD29O,0.295600X0.216900*%
%ADD30C,0.177500*%
G04 APERTURE END LIST*
G54D10*
G54D11*
X39370Y-40276D02*
X39370Y-54213D01*
X58110Y-39370D02*
X40276Y-39370D01*
X59055Y-54134D02*
X59055Y-40236D01*
X40276Y-55118D02*
X58228Y-55118D01*
X58229Y-55117D02*
X58307Y-55107D01*
X58385Y-55090D01*
X58460Y-55066D01*
X58533Y-55035D01*
X58604Y-54999D01*
X58670Y-54956D01*
X58733Y-54908D01*
X58792Y-54855D01*
X58845Y-54796D01*
X58893Y-54733D01*
X58936Y-54666D01*
X58972Y-54596D01*
X59003Y-54523D01*
X59027Y-54448D01*
X59044Y-54370D01*
X59054Y-54292D01*
X59058Y-54213D01*
X59054Y-54134D01*
X39371Y-54213D02*
X39375Y-54291D01*
X39385Y-54370D01*
X39402Y-54447D01*
X39426Y-54522D01*
X39456Y-54595D01*
X39493Y-54665D01*
X39535Y-54732D01*
X39583Y-54794D01*
X39637Y-54852D01*
X39695Y-54906D01*
X39757Y-54954D01*
X39824Y-54996D01*
X39894Y-55033D01*
X39967Y-55063D01*
X40042Y-55087D01*
X40119Y-55104D01*
X40198Y-55114D01*
X40276Y-55118D01*
X59055Y-40237D02*
X59048Y-40158D01*
X59034Y-40080D01*
X59014Y-40004D01*
X58987Y-39930D01*
X58953Y-39858D01*
X58914Y-39790D01*
X58868Y-39725D01*
X58817Y-39664D01*
X58762Y-39609D01*
X58701Y-39558D01*
X58636Y-39512D01*
X58568Y-39473D01*
X58496Y-39439D01*
X58422Y-39412D01*
X58346Y-39392D01*
X58268Y-39378D01*
X58189Y-39371D01*
X58111Y-39371D01*
X40276Y-39370D02*
X40198Y-39374D01*
X40119Y-39384D01*
X40042Y-39401D01*
X39967Y-39425D01*
X39894Y-39455D01*
X39824Y-39492D01*
X39757Y-39534D01*
X39694Y-39582D01*
X39636Y-39636D01*
X39582Y-39694D01*
X39534Y-39757D01*
X39492Y-39824D01*
X39455Y-39894D01*
X39425Y-39967D01*
X39401Y-40042D01*
X39384Y-40119D01*
X39374Y-40198D01*
X39370Y-40276D01*
G54D12*
X51684Y-44167D03*
X51369Y-44167D03*
X51054Y-44167D03*
X50739Y-44167D03*
X50424Y-44167D03*
X50109Y-44167D03*
X49794Y-44167D03*
X49479Y-44167D03*
X49481Y-47933D03*
X51691Y-47933D03*
X51371Y-47933D03*
X51051Y-47933D03*
X50741Y-47933D03*
X50421Y-47933D03*
X50111Y-47933D03*
X49791Y-47933D03*
G54D13*
X48691Y-44951D03*
X48691Y-45265D03*
X48691Y-45581D03*
X48691Y-45895D03*
X48691Y-46211D03*
X48691Y-46525D03*
X48691Y-46841D03*
X48691Y-47155D03*
X52471Y-44953D03*
X52471Y-45263D03*
X52471Y-45583D03*
X52471Y-45893D03*
X52471Y-46203D03*
X52471Y-46523D03*
X52471Y-46843D03*
X52471Y-47163D03*
G54D14*
X54443Y-42524D03*
X54443Y-43224D03*
X55243Y-42874D03*
G54D15*
X52006Y-53612D03*
X52506Y-53612D03*
X53006Y-53612D03*
X53506Y-53612D03*
X53506Y-51112D03*
X53006Y-51112D03*
X52506Y-51112D03*
X52006Y-51112D03*
G54D16*
X54921Y-51594D03*
X54921Y-52344D03*
X54921Y-53365D03*
X54921Y-54115D03*
G54D17*
X51359Y-49606D03*
X50609Y-49606D03*
G54D18*
X50694Y-42717D03*
X50094Y-42717D03*
X44001Y-42323D03*
X43401Y-42323D03*
X45379Y-42323D03*
X44779Y-42323D03*
X48716Y-54134D03*
X49316Y-54134D03*
X50094Y-54134D03*
X50694Y-54134D03*
G54D19*
X54921Y-50094D03*
X54921Y-50694D03*
X39921Y-44346D03*
X39921Y-44946D03*
G54D18*
X44001Y-41339D03*
X43401Y-41339D03*
X54543Y-41772D03*
X55143Y-41772D03*
G54D20*
X57307Y-40354D03*
G54D21*
X58307Y-40354D03*
G54D20*
X43303Y-40354D03*
G54D21*
X44303Y-40354D03*
X45303Y-40354D03*
X46303Y-40354D03*
X47303Y-40354D03*
X48303Y-40354D03*
X49303Y-40354D03*
X50303Y-40354D03*
X51303Y-40354D03*
X52303Y-40354D03*
X53303Y-40354D03*
X54303Y-40354D03*
X55303Y-40354D03*
X56303Y-40354D03*
G54D22*
X40217Y-47531D03*
G54D23*
X40217Y-48531D03*
X41217Y-47531D03*
X41217Y-48531D03*
X42217Y-47531D03*
X42217Y-48531D03*
X43217Y-47531D03*
X43217Y-48531D03*
X44217Y-47531D03*
X44217Y-48531D03*
X45217Y-47531D03*
X45217Y-48531D03*
G54D24*
X39921Y-43130D03*
X39921Y-42304D03*
G54D25*
X48835Y-51969D03*
G54D26*
X46835Y-51969D03*
G54D27*
X50591Y-52776D03*
X50591Y-51162D03*
G54D22*
X57283Y-51476D03*
G54D23*
X57283Y-52854D03*
G54D22*
X44488Y-51280D03*
G54D23*
X44488Y-52658D03*
G54D22*
X45291Y-44988D03*
G54D23*
X45291Y-43988D03*
X44291Y-44988D03*
X44291Y-43988D03*
X43291Y-44988D03*
X43291Y-43988D03*
G54D28*
X57677Y-41807D03*
X57677Y-42807D03*
X57677Y-43807D03*
X57677Y-44807D03*
X57677Y-46531D03*
X57677Y-47531D03*
X57677Y-48531D03*
X57677Y-49531D03*
G54D29*
X40669Y-40276D03*
G54D30*
X41063Y-52756D03*
M02*
