G04 (created by PCBNEW-RS274X (2012-apr-16-27)-stable) date Sun 20 Jan 2013 09:00:02 PM CET*
G01*
G70*
G90*
%MOIN*%
G04 Gerber Fmt 3.4, Leading zero omitted, Abs format*
%FSLAX34Y34*%
G04 APERTURE LIST*
%ADD10C,0.006000*%
%ADD11C,0.015000*%
%ADD12R,0.017700X0.078700*%
%ADD13R,0.078700X0.017700*%
%ADD14R,0.036000X0.036000*%
%ADD15R,0.020000X0.045000*%
%ADD16R,0.055000X0.035000*%
%ADD17R,0.035000X0.055000*%
%ADD18R,0.025000X0.045000*%
%ADD19R,0.045000X0.025000*%
%ADD20R,0.055000X0.055000*%
%ADD21C,0.055000*%
%ADD22R,0.060000X0.060000*%
%ADD23C,0.060000*%
%ADD24R,0.047200X0.047200*%
%ADD25R,0.075000X0.075000*%
%ADD26C,0.075000*%
%ADD27R,0.066900X0.070800*%
%ADD28O,0.120000X0.060000*%
%ADD29O,0.275600X0.196900*%
%ADD30C,0.157500*%
%ADD31C,0.031500*%
%ADD32C,0.015700*%
%ADD33C,0.009800*%
%ADD34C,0.010000*%
G04 APERTURE END LIST*
G54D10*
G54D11*
X39370Y-40276D02*
X39370Y-54213D01*
X58110Y-39370D02*
X40276Y-39370D01*
X59055Y-54134D02*
X59055Y-40236D01*
X40276Y-55118D02*
X58228Y-55118D01*
X58229Y-55117D02*
X58307Y-55107D01*
X58385Y-55090D01*
X58460Y-55066D01*
X58533Y-55035D01*
X58604Y-54999D01*
X58670Y-54956D01*
X58733Y-54908D01*
X58792Y-54855D01*
X58845Y-54796D01*
X58893Y-54733D01*
X58936Y-54666D01*
X58972Y-54596D01*
X59003Y-54523D01*
X59027Y-54448D01*
X59044Y-54370D01*
X59054Y-54292D01*
X59058Y-54213D01*
X59054Y-54134D01*
X39371Y-54213D02*
X39375Y-54291D01*
X39385Y-54370D01*
X39402Y-54447D01*
X39426Y-54522D01*
X39456Y-54595D01*
X39493Y-54665D01*
X39535Y-54732D01*
X39583Y-54794D01*
X39637Y-54852D01*
X39695Y-54906D01*
X39757Y-54954D01*
X39824Y-54996D01*
X39894Y-55033D01*
X39967Y-55063D01*
X40042Y-55087D01*
X40119Y-55104D01*
X40198Y-55114D01*
X40276Y-55118D01*
X59055Y-40237D02*
X59048Y-40158D01*
X59034Y-40080D01*
X59014Y-40004D01*
X58987Y-39930D01*
X58953Y-39858D01*
X58914Y-39790D01*
X58868Y-39725D01*
X58817Y-39664D01*
X58762Y-39609D01*
X58701Y-39558D01*
X58636Y-39512D01*
X58568Y-39473D01*
X58496Y-39439D01*
X58422Y-39412D01*
X58346Y-39392D01*
X58268Y-39378D01*
X58189Y-39371D01*
X58111Y-39371D01*
X40276Y-39370D02*
X40198Y-39374D01*
X40119Y-39384D01*
X40042Y-39401D01*
X39967Y-39425D01*
X39894Y-39455D01*
X39824Y-39492D01*
X39757Y-39534D01*
X39694Y-39582D01*
X39636Y-39636D01*
X39582Y-39694D01*
X39534Y-39757D01*
X39492Y-39824D01*
X39455Y-39894D01*
X39425Y-39967D01*
X39401Y-40042D01*
X39384Y-40119D01*
X39374Y-40198D01*
X39370Y-40276D01*
G54D12*
X51684Y-44167D03*
X51369Y-44167D03*
X51054Y-44167D03*
X50739Y-44167D03*
X50424Y-44167D03*
X50109Y-44167D03*
X49794Y-44167D03*
X49479Y-44167D03*
X49481Y-47933D03*
X51691Y-47933D03*
X51371Y-47933D03*
X51051Y-47933D03*
X50741Y-47933D03*
X50421Y-47933D03*
X50111Y-47933D03*
X49791Y-47933D03*
G54D13*
X48691Y-44951D03*
X48691Y-45265D03*
X48691Y-45581D03*
X48691Y-45895D03*
X48691Y-46211D03*
X48691Y-46525D03*
X48691Y-46841D03*
X48691Y-47155D03*
X52471Y-44953D03*
X52471Y-45263D03*
X52471Y-45583D03*
X52471Y-45893D03*
X52471Y-46203D03*
X52471Y-46523D03*
X52471Y-46843D03*
X52471Y-47163D03*
G54D14*
X54443Y-42524D03*
X54443Y-43224D03*
X55243Y-42874D03*
G54D15*
X52006Y-53612D03*
X52506Y-53612D03*
X53006Y-53612D03*
X53506Y-53612D03*
X53506Y-51112D03*
X53006Y-51112D03*
X52506Y-51112D03*
X52006Y-51112D03*
G54D16*
X54921Y-51594D03*
X54921Y-52344D03*
X54921Y-53365D03*
X54921Y-54115D03*
G54D17*
X51359Y-49606D03*
X50609Y-49606D03*
G54D18*
X50694Y-42717D03*
X50094Y-42717D03*
X44001Y-42323D03*
X43401Y-42323D03*
X45379Y-42323D03*
X44779Y-42323D03*
X48716Y-54134D03*
X49316Y-54134D03*
X50094Y-54134D03*
X50694Y-54134D03*
G54D19*
X54921Y-50094D03*
X54921Y-50694D03*
X39921Y-44346D03*
X39921Y-44946D03*
G54D18*
X44001Y-41339D03*
X43401Y-41339D03*
X54543Y-41772D03*
X55143Y-41772D03*
G54D20*
X57307Y-40354D03*
G54D21*
X58307Y-40354D03*
G54D20*
X43303Y-40354D03*
G54D21*
X44303Y-40354D03*
X45303Y-40354D03*
X46303Y-40354D03*
X47303Y-40354D03*
X48303Y-40354D03*
X49303Y-40354D03*
X50303Y-40354D03*
X51303Y-40354D03*
X52303Y-40354D03*
X53303Y-40354D03*
X54303Y-40354D03*
X55303Y-40354D03*
X56303Y-40354D03*
G54D22*
X40217Y-47531D03*
G54D23*
X40217Y-48531D03*
X41217Y-47531D03*
X41217Y-48531D03*
X42217Y-47531D03*
X42217Y-48531D03*
X43217Y-47531D03*
X43217Y-48531D03*
X44217Y-47531D03*
X44217Y-48531D03*
X45217Y-47531D03*
X45217Y-48531D03*
G54D24*
X39921Y-43130D03*
X39921Y-42304D03*
G54D25*
X48835Y-51969D03*
G54D26*
X46835Y-51969D03*
G54D27*
X50591Y-52776D03*
X50591Y-51162D03*
G54D22*
X57283Y-51476D03*
G54D23*
X57283Y-52854D03*
G54D22*
X44488Y-51280D03*
G54D23*
X44488Y-52658D03*
G54D22*
X45291Y-44988D03*
G54D23*
X45291Y-43988D03*
X44291Y-44988D03*
X44291Y-43988D03*
X43291Y-44988D03*
X43291Y-43988D03*
G54D28*
X57677Y-41807D03*
X57677Y-42807D03*
X57677Y-43807D03*
X57677Y-44807D03*
X57677Y-46531D03*
X57677Y-47531D03*
X57677Y-48531D03*
X57677Y-49531D03*
G54D29*
X40669Y-40276D03*
G54D30*
X41063Y-52756D03*
G54D31*
X50669Y-41339D03*
X52008Y-49567D03*
X44370Y-41339D03*
X54094Y-41850D03*
X50000Y-48740D03*
X51063Y-52756D03*
X45157Y-50236D03*
X51063Y-54134D03*
X53937Y-42520D03*
X55472Y-52323D03*
X54331Y-52362D03*
X54370Y-50827D03*
X50079Y-41929D03*
X50039Y-49724D03*
X54843Y-45000D03*
X45827Y-42795D03*
X53937Y-43228D03*
X42520Y-44488D03*
X54843Y-44488D03*
X55512Y-43976D03*
X48386Y-43976D03*
X49488Y-48740D03*
X51024Y-48583D03*
X50079Y-47244D03*
X51457Y-45866D03*
X53465Y-42717D03*
X45827Y-42283D03*
X51457Y-46693D03*
X45197Y-46063D03*
X45551Y-45827D03*
X46929Y-46299D03*
X47244Y-45866D03*
X51811Y-45591D03*
X47953Y-43819D03*
X56024Y-43858D03*
X47756Y-45669D03*
G54D32*
X54664Y-53365D02*
X53642Y-52343D01*
X54921Y-51594D02*
X54390Y-51594D01*
X53006Y-52978D02*
X53006Y-53612D01*
X54390Y-51594D02*
X53642Y-52342D01*
X53642Y-52342D02*
X53006Y-52978D01*
X57283Y-51476D02*
X56437Y-51476D01*
X56319Y-51594D02*
X54921Y-51594D01*
X56437Y-51476D02*
X56319Y-51594D01*
X57677Y-41807D02*
X58421Y-41807D01*
X58524Y-51476D02*
X57283Y-51476D01*
X58780Y-51220D02*
X58524Y-51476D01*
X58780Y-42166D02*
X58780Y-51220D01*
X58421Y-41807D02*
X58780Y-42166D01*
X54921Y-53365D02*
X54664Y-53365D01*
X53642Y-52343D02*
X53642Y-52342D01*
X51054Y-47205D02*
X51063Y-47205D01*
X51063Y-47205D02*
X51221Y-47205D01*
X51054Y-44167D02*
X51054Y-47205D01*
X43425Y-53425D02*
X43425Y-51614D01*
X54543Y-41772D02*
X54172Y-41772D01*
X52008Y-49567D02*
X51969Y-49606D01*
X44134Y-54134D02*
X43425Y-53425D01*
X43425Y-51614D02*
X43759Y-51280D01*
X43759Y-51280D02*
X44488Y-51280D01*
X48716Y-54134D02*
X44134Y-54134D01*
X51969Y-49606D02*
X51359Y-49606D01*
X50669Y-41339D02*
X50694Y-41364D01*
X51221Y-47205D02*
X51371Y-47355D01*
X44001Y-40656D02*
X44303Y-40354D01*
X51371Y-47355D02*
X51371Y-47933D01*
X44001Y-41339D02*
X44370Y-41339D01*
X51371Y-47933D02*
X51371Y-49594D01*
X51371Y-49594D02*
X51359Y-49606D01*
X50906Y-47205D02*
X51063Y-47205D01*
X50741Y-47370D02*
X50906Y-47205D01*
X50424Y-44167D02*
X50424Y-43552D01*
X44488Y-51693D02*
X44488Y-51280D01*
X45217Y-47531D02*
X44724Y-48024D01*
X44764Y-51969D02*
X44488Y-51693D01*
X50694Y-42717D02*
X50694Y-43400D01*
X44488Y-50866D02*
X44488Y-51280D01*
X44724Y-49016D02*
X44724Y-48024D01*
X44488Y-49252D02*
X44724Y-49016D01*
X44547Y-51280D02*
X44488Y-51280D01*
X46835Y-51969D02*
X44764Y-51969D01*
X46181Y-50079D02*
X44980Y-51280D01*
X44980Y-51280D02*
X44488Y-51280D01*
X51359Y-49606D02*
X51359Y-49743D01*
X51023Y-50079D02*
X46181Y-50077D01*
X51359Y-49743D02*
X51023Y-50079D01*
X50945Y-43425D02*
X51054Y-43534D01*
X51054Y-43534D02*
X51054Y-44167D01*
X50424Y-43552D02*
X50551Y-43425D01*
X50669Y-43425D02*
X50945Y-43425D01*
X50694Y-43400D02*
X50669Y-43425D01*
X44488Y-50866D02*
X44488Y-49252D01*
X54172Y-41772D02*
X54094Y-41850D01*
X46181Y-50077D02*
X46181Y-50079D01*
X50551Y-43425D02*
X50669Y-43425D01*
X50741Y-47933D02*
X50741Y-47370D01*
X50694Y-41364D02*
X50694Y-42717D01*
X44001Y-41339D02*
X44001Y-40656D01*
X52401Y-50630D02*
X51123Y-50630D01*
X50591Y-51162D02*
X50138Y-51162D01*
X49331Y-51969D02*
X48835Y-51969D01*
X50138Y-51162D02*
X49331Y-51969D01*
X52506Y-51112D02*
X52506Y-50735D01*
X51123Y-50630D02*
X50591Y-51162D01*
X52506Y-50735D02*
X52401Y-50630D01*
G54D33*
X49791Y-48531D02*
X49791Y-47933D01*
X50000Y-48740D02*
X49791Y-48531D01*
X53303Y-40354D02*
X53268Y-40354D01*
X53268Y-40354D02*
X52480Y-41142D01*
X52480Y-41142D02*
X51693Y-41142D01*
X51693Y-41142D02*
X51369Y-41466D01*
X51369Y-41466D02*
X51369Y-44167D01*
X51929Y-41575D02*
X51684Y-41820D01*
X51684Y-41820D02*
X51684Y-44167D01*
X54303Y-40354D02*
X54303Y-40382D01*
X54303Y-40382D02*
X53110Y-41575D01*
X53110Y-41575D02*
X51929Y-41575D01*
X54095Y-40984D02*
X53268Y-41811D01*
X54646Y-40984D02*
X54095Y-40984D01*
X55276Y-40354D02*
X54646Y-40984D01*
X52716Y-41811D02*
X52471Y-42056D01*
X52471Y-42056D02*
X52471Y-44953D01*
X53268Y-41811D02*
X52716Y-41811D01*
X55303Y-40354D02*
X55276Y-40354D01*
X56303Y-40354D02*
X56261Y-40354D01*
X56261Y-40354D02*
X55395Y-41220D01*
X53005Y-45263D02*
X52471Y-45263D01*
X53110Y-45158D02*
X53005Y-45263D01*
X55395Y-41220D02*
X54213Y-41220D01*
X53386Y-42047D02*
X53150Y-42047D01*
X54213Y-41220D02*
X53386Y-42047D01*
X53110Y-42087D02*
X53110Y-45158D01*
X53150Y-42047D02*
X53110Y-42087D01*
X48303Y-40354D02*
X48303Y-41846D01*
X49794Y-43337D02*
X49794Y-44167D01*
X48303Y-41846D02*
X49794Y-43337D01*
G54D32*
X51063Y-52756D02*
X50611Y-52756D01*
X50611Y-52756D02*
X50591Y-52776D01*
X54443Y-42524D02*
X53941Y-42524D01*
X50094Y-41039D02*
X50094Y-42717D01*
X49803Y-40748D02*
X50094Y-41039D01*
X50109Y-44794D02*
X50236Y-44921D01*
X50094Y-41944D02*
X50094Y-42717D01*
X53941Y-42524D02*
X53937Y-42520D01*
X50421Y-48768D02*
X50421Y-47933D01*
X50694Y-54134D02*
X51063Y-54134D01*
X54370Y-50827D02*
X54503Y-50694D01*
X43898Y-39764D02*
X49606Y-39764D01*
X54349Y-52344D02*
X54331Y-52362D01*
X54503Y-50694D02*
X54921Y-50694D01*
X50109Y-44167D02*
X50109Y-44794D01*
X50433Y-49606D02*
X50157Y-49606D01*
X43401Y-42323D02*
X43401Y-43878D01*
X50109Y-42732D02*
X50094Y-42717D01*
X54921Y-52344D02*
X54349Y-52344D01*
X43382Y-42304D02*
X43401Y-42323D01*
X39921Y-42304D02*
X43382Y-42304D01*
X43308Y-40354D02*
X43898Y-39764D01*
X45217Y-50176D02*
X45157Y-50236D01*
X49803Y-39961D02*
X49803Y-40748D01*
X50079Y-41929D02*
X50094Y-41944D01*
X43303Y-40354D02*
X43308Y-40354D01*
X50157Y-49606D02*
X50039Y-49724D01*
X45217Y-48531D02*
X45217Y-50176D01*
X50609Y-49606D02*
X50433Y-49606D01*
X43401Y-41339D02*
X43401Y-42323D01*
X55451Y-52344D02*
X54921Y-52344D01*
X50609Y-48956D02*
X50421Y-48768D01*
X49606Y-39764D02*
X49803Y-39961D01*
X50109Y-44167D02*
X50109Y-42732D01*
X54085Y-51112D02*
X54503Y-50694D01*
X55472Y-52323D02*
X55451Y-52344D01*
X43303Y-40354D02*
X43303Y-41241D01*
X43401Y-43878D02*
X43291Y-43988D01*
X43303Y-41241D02*
X43401Y-41339D01*
X50433Y-44921D02*
X50433Y-47921D01*
X50433Y-47921D02*
X50421Y-47933D01*
X50433Y-44921D02*
X50630Y-44921D01*
X50609Y-49606D02*
X50609Y-48956D01*
X50630Y-44921D02*
X50739Y-44812D01*
X50739Y-44812D02*
X50739Y-44167D01*
X53506Y-51112D02*
X54085Y-51112D01*
X50236Y-44921D02*
X50433Y-44921D01*
G54D33*
X54530Y-47163D02*
X52471Y-47163D01*
X54843Y-46850D02*
X54530Y-47163D01*
X54843Y-45000D02*
X54843Y-46850D01*
X44291Y-43110D02*
X44291Y-43988D01*
X44606Y-42795D02*
X44291Y-43110D01*
X45827Y-42795D02*
X44606Y-42795D01*
X54101Y-46843D02*
X52471Y-46843D01*
X54443Y-43224D02*
X54443Y-46501D01*
X54443Y-46501D02*
X54101Y-46843D01*
X53941Y-43224D02*
X53937Y-43228D01*
X54443Y-43224D02*
X53941Y-43224D01*
X55630Y-54370D02*
X55630Y-53976D01*
X49685Y-54134D02*
X49316Y-54134D01*
X55630Y-53976D02*
X55394Y-53740D01*
X53634Y-53740D02*
X53506Y-53612D01*
X55276Y-54724D02*
X55630Y-54370D01*
X49685Y-54134D02*
X50094Y-54134D01*
X50094Y-54134D02*
X50094Y-54504D01*
X50314Y-54724D02*
X55276Y-54724D01*
X55394Y-53740D02*
X53634Y-53740D01*
X50094Y-54504D02*
X50314Y-54724D01*
G54D32*
X52506Y-53612D02*
X52006Y-53612D01*
X54921Y-54115D02*
X54507Y-54115D01*
X54507Y-54115D02*
X54409Y-54213D01*
X52506Y-54081D02*
X52506Y-53612D01*
X54409Y-54213D02*
X52638Y-54213D01*
X52638Y-54213D02*
X52506Y-54081D01*
X52006Y-53612D02*
X52006Y-51112D01*
G54D33*
X54921Y-50094D02*
X53567Y-50094D01*
X53006Y-50655D02*
X53006Y-51112D01*
X53567Y-50094D02*
X53006Y-50655D01*
X39921Y-43130D02*
X39921Y-44346D01*
X55275Y-42874D02*
X57125Y-41024D01*
X57637Y-41024D02*
X58307Y-40354D01*
X57125Y-41024D02*
X57637Y-41024D01*
X55243Y-42874D02*
X55275Y-42874D01*
X55196Y-41772D02*
X55143Y-41772D01*
X57126Y-40354D02*
X56417Y-41063D01*
X57307Y-40354D02*
X57126Y-40354D01*
X56417Y-41063D02*
X55905Y-41063D01*
X55905Y-41063D02*
X55196Y-41772D01*
X47303Y-40354D02*
X47303Y-41240D01*
X49479Y-43416D02*
X49479Y-44167D01*
X47303Y-41240D02*
X49479Y-43416D01*
X46303Y-40354D02*
X46303Y-40870D01*
X48691Y-43258D02*
X48691Y-44951D01*
X46303Y-40870D02*
X48691Y-43258D01*
X54626Y-47933D02*
X51691Y-47933D01*
X55197Y-47362D02*
X54626Y-47933D01*
X42520Y-44488D02*
X42062Y-44946D01*
X42062Y-44946D02*
X39921Y-44946D01*
X54843Y-44488D02*
X55197Y-44842D01*
X55197Y-44842D02*
X55197Y-47362D01*
X48110Y-45197D02*
X48110Y-44173D01*
X56957Y-48531D02*
X57677Y-48531D01*
X48691Y-45265D02*
X48178Y-45265D01*
X55787Y-47361D02*
X56957Y-48531D01*
X48307Y-43976D02*
X48386Y-43976D01*
X48110Y-44173D02*
X48307Y-43976D01*
X55787Y-44251D02*
X55787Y-47361D01*
X55512Y-43976D02*
X55787Y-44251D01*
X48178Y-45265D02*
X48110Y-45197D01*
X49488Y-48740D02*
X49481Y-48733D01*
X49481Y-48733D02*
X49481Y-47933D01*
X51051Y-48556D02*
X51024Y-48583D01*
X51051Y-47933D02*
X51051Y-48556D01*
X50111Y-47276D02*
X50111Y-47933D01*
X50079Y-47244D02*
X50111Y-47276D01*
X44779Y-42323D02*
X44779Y-40878D01*
X44779Y-40878D02*
X45303Y-40354D01*
X44001Y-42323D02*
X44779Y-42323D01*
X52471Y-45893D02*
X51484Y-45893D01*
X51484Y-45893D02*
X51457Y-45866D01*
X53622Y-45826D02*
X53245Y-46203D01*
X43217Y-48492D02*
X42717Y-47992D01*
X53465Y-42717D02*
X53622Y-42874D01*
X46339Y-42402D02*
X46339Y-42874D01*
X46339Y-42874D02*
X45945Y-43268D01*
X46220Y-42283D02*
X46339Y-42402D01*
X45787Y-42323D02*
X45827Y-42283D01*
X45379Y-42323D02*
X45787Y-42323D01*
X53622Y-42874D02*
X53622Y-45826D01*
X43217Y-48531D02*
X43217Y-48492D01*
X43780Y-45590D02*
X43701Y-45669D01*
X42717Y-46653D02*
X43701Y-45669D01*
X45945Y-43268D02*
X45157Y-43268D01*
X45157Y-43268D02*
X44803Y-43622D01*
X46220Y-42283D02*
X45827Y-42283D01*
X42717Y-47992D02*
X42717Y-46653D01*
X53245Y-46203D02*
X52471Y-46203D01*
X44803Y-43622D02*
X44803Y-44252D01*
X44803Y-44252D02*
X44567Y-44488D01*
X44567Y-44488D02*
X43977Y-44488D01*
X43977Y-44488D02*
X43780Y-44685D01*
X43780Y-44685D02*
X43780Y-45590D01*
X51627Y-46523D02*
X52471Y-46523D01*
X51457Y-46693D02*
X51627Y-46523D01*
X45276Y-46142D02*
X45984Y-46142D01*
X46997Y-47155D02*
X48691Y-47155D01*
X45984Y-46142D02*
X46997Y-47155D01*
X45197Y-46063D02*
X45276Y-46142D01*
X48691Y-46841D02*
X46998Y-46841D01*
X45984Y-45827D02*
X45551Y-45827D01*
X46998Y-46841D02*
X45984Y-45827D01*
X47391Y-46525D02*
X47165Y-46299D01*
X47165Y-46299D02*
X46929Y-46299D01*
X47391Y-46525D02*
X48691Y-46525D01*
X47589Y-46211D02*
X48691Y-46211D01*
X47589Y-46211D02*
X47244Y-45866D01*
X51811Y-45591D02*
X51819Y-45583D01*
X51819Y-45583D02*
X52471Y-45583D01*
X47913Y-45354D02*
X48140Y-45581D01*
X47913Y-43859D02*
X47913Y-45354D01*
X47953Y-43819D02*
X47913Y-43859D01*
X57677Y-47531D02*
X57216Y-47531D01*
X48140Y-45581D02*
X48691Y-45581D01*
X56024Y-46339D02*
X56024Y-43858D01*
X57216Y-47531D02*
X56024Y-46339D01*
X48021Y-45895D02*
X48691Y-45895D01*
X47982Y-45895D02*
X48021Y-45895D01*
X47756Y-45669D02*
X47982Y-45895D01*
G54D10*
G36*
X52824Y-50414D02*
X52795Y-50444D01*
X52730Y-50540D01*
X52726Y-50559D01*
X52707Y-50655D01*
X52707Y-50734D01*
X52698Y-50742D01*
X52639Y-50719D01*
X52598Y-50719D01*
X52556Y-50761D01*
X52556Y-51012D01*
X52556Y-51062D01*
X52556Y-51162D01*
X52456Y-51162D01*
X52456Y-51062D01*
X52456Y-51012D01*
X52456Y-50761D01*
X52414Y-50719D01*
X52373Y-50719D01*
X52313Y-50742D01*
X52247Y-50676D01*
X52156Y-50638D01*
X52057Y-50638D01*
X51857Y-50638D01*
X51765Y-50676D01*
X51695Y-50746D01*
X51657Y-50837D01*
X51657Y-50936D01*
X51657Y-51386D01*
X51678Y-51436D01*
X51678Y-53060D01*
X51332Y-53060D01*
X51407Y-52987D01*
X51469Y-52837D01*
X51469Y-52676D01*
X51407Y-52527D01*
X51294Y-52412D01*
X51168Y-52360D01*
X51136Y-52281D01*
X51093Y-52238D01*
X51093Y-51549D01*
X51093Y-51254D01*
X51093Y-51070D01*
X51093Y-50775D01*
X51068Y-50713D01*
X51020Y-50666D01*
X50959Y-50640D01*
X50892Y-50640D01*
X50683Y-50640D01*
X50641Y-50682D01*
X50641Y-51112D01*
X51051Y-51112D01*
X51093Y-51070D01*
X51093Y-51254D01*
X51051Y-51212D01*
X50641Y-51212D01*
X50641Y-51642D01*
X50683Y-51684D01*
X50892Y-51684D01*
X50959Y-51684D01*
X51020Y-51658D01*
X51068Y-51611D01*
X51093Y-51549D01*
X51093Y-52238D01*
X51066Y-52211D01*
X50975Y-52173D01*
X50876Y-52173D01*
X50541Y-52173D01*
X50541Y-51642D01*
X50541Y-51212D01*
X50541Y-51112D01*
X50541Y-50682D01*
X50499Y-50640D01*
X50290Y-50640D01*
X50223Y-50640D01*
X50162Y-50666D01*
X50114Y-50713D01*
X50089Y-50775D01*
X50089Y-51070D01*
X50131Y-51112D01*
X50541Y-51112D01*
X50541Y-51212D01*
X50131Y-51212D01*
X50089Y-51254D01*
X50089Y-51549D01*
X50114Y-51611D01*
X50162Y-51658D01*
X50223Y-51684D01*
X50290Y-51684D01*
X50499Y-51684D01*
X50541Y-51642D01*
X50541Y-52173D01*
X50208Y-52173D01*
X50116Y-52211D01*
X50046Y-52281D01*
X50008Y-52372D01*
X50008Y-52471D01*
X50008Y-53060D01*
X49378Y-53060D01*
X49378Y-52378D01*
X49378Y-52311D01*
X49378Y-52061D01*
X49378Y-51877D01*
X49378Y-51627D01*
X49378Y-51560D01*
X49352Y-51499D01*
X49305Y-51451D01*
X49243Y-51426D01*
X48927Y-51426D01*
X48885Y-51468D01*
X48885Y-51919D01*
X49336Y-51919D01*
X49378Y-51877D01*
X49378Y-52061D01*
X49336Y-52019D01*
X48885Y-52019D01*
X48885Y-52470D01*
X48927Y-52512D01*
X49243Y-52512D01*
X49305Y-52487D01*
X49352Y-52439D01*
X49378Y-52378D01*
X49378Y-53060D01*
X48785Y-53060D01*
X48785Y-52470D01*
X48785Y-52019D01*
X48785Y-51919D01*
X48785Y-51468D01*
X48743Y-51426D01*
X48427Y-51426D01*
X48365Y-51451D01*
X48318Y-51499D01*
X48292Y-51560D01*
X48292Y-51627D01*
X48292Y-51877D01*
X48334Y-51919D01*
X48785Y-51919D01*
X48785Y-52019D01*
X48334Y-52019D01*
X48292Y-52061D01*
X48292Y-52311D01*
X48292Y-52378D01*
X48318Y-52439D01*
X48365Y-52487D01*
X48427Y-52512D01*
X48743Y-52512D01*
X48785Y-52470D01*
X48785Y-53060D01*
X47806Y-53060D01*
X47806Y-50405D01*
X51013Y-50405D01*
X51023Y-50407D01*
X51148Y-50382D01*
X51149Y-50380D01*
X51255Y-50311D01*
X51436Y-50130D01*
X51583Y-50130D01*
X51675Y-50092D01*
X51745Y-50022D01*
X51781Y-49934D01*
X51832Y-49934D01*
X51927Y-49973D01*
X52088Y-49973D01*
X52237Y-49911D01*
X52335Y-49814D01*
X52824Y-49814D01*
X52824Y-50414D01*
X52824Y-50414D01*
G37*
G54D34*
X52824Y-50414D02*
X52795Y-50444D01*
X52730Y-50540D01*
X52726Y-50559D01*
X52707Y-50655D01*
X52707Y-50734D01*
X52698Y-50742D01*
X52639Y-50719D01*
X52598Y-50719D01*
X52556Y-50761D01*
X52556Y-51012D01*
X52556Y-51062D01*
X52556Y-51162D01*
X52456Y-51162D01*
X52456Y-51062D01*
X52456Y-51012D01*
X52456Y-50761D01*
X52414Y-50719D01*
X52373Y-50719D01*
X52313Y-50742D01*
X52247Y-50676D01*
X52156Y-50638D01*
X52057Y-50638D01*
X51857Y-50638D01*
X51765Y-50676D01*
X51695Y-50746D01*
X51657Y-50837D01*
X51657Y-50936D01*
X51657Y-51386D01*
X51678Y-51436D01*
X51678Y-53060D01*
X51332Y-53060D01*
X51407Y-52987D01*
X51469Y-52837D01*
X51469Y-52676D01*
X51407Y-52527D01*
X51294Y-52412D01*
X51168Y-52360D01*
X51136Y-52281D01*
X51093Y-52238D01*
X51093Y-51549D01*
X51093Y-51254D01*
X51093Y-51070D01*
X51093Y-50775D01*
X51068Y-50713D01*
X51020Y-50666D01*
X50959Y-50640D01*
X50892Y-50640D01*
X50683Y-50640D01*
X50641Y-50682D01*
X50641Y-51112D01*
X51051Y-51112D01*
X51093Y-51070D01*
X51093Y-51254D01*
X51051Y-51212D01*
X50641Y-51212D01*
X50641Y-51642D01*
X50683Y-51684D01*
X50892Y-51684D01*
X50959Y-51684D01*
X51020Y-51658D01*
X51068Y-51611D01*
X51093Y-51549D01*
X51093Y-52238D01*
X51066Y-52211D01*
X50975Y-52173D01*
X50876Y-52173D01*
X50541Y-52173D01*
X50541Y-51642D01*
X50541Y-51212D01*
X50541Y-51112D01*
X50541Y-50682D01*
X50499Y-50640D01*
X50290Y-50640D01*
X50223Y-50640D01*
X50162Y-50666D01*
X50114Y-50713D01*
X50089Y-50775D01*
X50089Y-51070D01*
X50131Y-51112D01*
X50541Y-51112D01*
X50541Y-51212D01*
X50131Y-51212D01*
X50089Y-51254D01*
X50089Y-51549D01*
X50114Y-51611D01*
X50162Y-51658D01*
X50223Y-51684D01*
X50290Y-51684D01*
X50499Y-51684D01*
X50541Y-51642D01*
X50541Y-52173D01*
X50208Y-52173D01*
X50116Y-52211D01*
X50046Y-52281D01*
X50008Y-52372D01*
X50008Y-52471D01*
X50008Y-53060D01*
X49378Y-53060D01*
X49378Y-52378D01*
X49378Y-52311D01*
X49378Y-52061D01*
X49378Y-51877D01*
X49378Y-51627D01*
X49378Y-51560D01*
X49352Y-51499D01*
X49305Y-51451D01*
X49243Y-51426D01*
X48927Y-51426D01*
X48885Y-51468D01*
X48885Y-51919D01*
X49336Y-51919D01*
X49378Y-51877D01*
X49378Y-52061D01*
X49336Y-52019D01*
X48885Y-52019D01*
X48885Y-52470D01*
X48927Y-52512D01*
X49243Y-52512D01*
X49305Y-52487D01*
X49352Y-52439D01*
X49378Y-52378D01*
X49378Y-53060D01*
X48785Y-53060D01*
X48785Y-52470D01*
X48785Y-52019D01*
X48785Y-51919D01*
X48785Y-51468D01*
X48743Y-51426D01*
X48427Y-51426D01*
X48365Y-51451D01*
X48318Y-51499D01*
X48292Y-51560D01*
X48292Y-51627D01*
X48292Y-51877D01*
X48334Y-51919D01*
X48785Y-51919D01*
X48785Y-52019D01*
X48334Y-52019D01*
X48292Y-52061D01*
X48292Y-52311D01*
X48292Y-52378D01*
X48318Y-52439D01*
X48365Y-52487D01*
X48427Y-52512D01*
X48743Y-52512D01*
X48785Y-52470D01*
X48785Y-53060D01*
X47806Y-53060D01*
X47806Y-50405D01*
X51013Y-50405D01*
X51023Y-50407D01*
X51148Y-50382D01*
X51149Y-50380D01*
X51255Y-50311D01*
X51436Y-50130D01*
X51583Y-50130D01*
X51675Y-50092D01*
X51745Y-50022D01*
X51781Y-49934D01*
X51832Y-49934D01*
X51927Y-49973D01*
X52088Y-49973D01*
X52237Y-49911D01*
X52335Y-49814D01*
X52824Y-49814D01*
X52824Y-50414D01*
G54D10*
G36*
X58730Y-53887D02*
X57832Y-53887D01*
X57832Y-52963D01*
X57832Y-52745D01*
X57751Y-52550D01*
X57751Y-51809D01*
X57751Y-51568D01*
X57751Y-51384D01*
X57751Y-51143D01*
X57726Y-51081D01*
X57678Y-51034D01*
X57617Y-51008D01*
X57550Y-51008D01*
X57375Y-51008D01*
X57333Y-51050D01*
X57333Y-51426D01*
X57709Y-51426D01*
X57751Y-51384D01*
X57751Y-51568D01*
X57709Y-51526D01*
X57333Y-51526D01*
X57333Y-51902D01*
X57375Y-51944D01*
X57550Y-51944D01*
X57617Y-51944D01*
X57678Y-51918D01*
X57726Y-51871D01*
X57751Y-51809D01*
X57751Y-52550D01*
X57748Y-52543D01*
X57594Y-52389D01*
X57392Y-52305D01*
X57233Y-52305D01*
X57233Y-51902D01*
X57233Y-51526D01*
X57233Y-51426D01*
X57233Y-51050D01*
X57191Y-51008D01*
X57016Y-51008D01*
X56949Y-51008D01*
X56888Y-51034D01*
X56840Y-51081D01*
X56815Y-51143D01*
X56815Y-51384D01*
X56857Y-51426D01*
X57233Y-51426D01*
X57233Y-51526D01*
X56857Y-51526D01*
X56815Y-51568D01*
X56815Y-51809D01*
X56840Y-51871D01*
X56888Y-51918D01*
X56949Y-51944D01*
X57016Y-51944D01*
X57191Y-51944D01*
X57233Y-51902D01*
X57233Y-52305D01*
X57174Y-52305D01*
X56972Y-52389D01*
X56818Y-52543D01*
X56734Y-52745D01*
X56734Y-52963D01*
X56818Y-53165D01*
X56972Y-53319D01*
X57174Y-53403D01*
X57392Y-53403D01*
X57594Y-53319D01*
X57748Y-53165D01*
X57832Y-52963D01*
X57832Y-53887D01*
X55911Y-53887D01*
X55906Y-53862D01*
X55905Y-53861D01*
X55883Y-53829D01*
X55878Y-53821D01*
X55878Y-52404D01*
X55878Y-52243D01*
X55816Y-52094D01*
X55703Y-51979D01*
X55553Y-51917D01*
X55392Y-51917D01*
X55315Y-51948D01*
X55258Y-51925D01*
X55291Y-51911D01*
X55339Y-51864D01*
X55364Y-51802D01*
X55364Y-51686D01*
X55364Y-51502D01*
X55364Y-51386D01*
X55339Y-51324D01*
X55291Y-51277D01*
X55230Y-51251D01*
X55163Y-51251D01*
X55013Y-51251D01*
X54971Y-51293D01*
X54971Y-51544D01*
X55322Y-51544D01*
X55364Y-51502D01*
X55364Y-51686D01*
X55322Y-51644D01*
X55021Y-51644D01*
X54971Y-51644D01*
X54871Y-51644D01*
X54871Y-51544D01*
X54871Y-51293D01*
X54829Y-51251D01*
X54679Y-51251D01*
X54612Y-51251D01*
X54551Y-51277D01*
X54503Y-51324D01*
X54478Y-51386D01*
X54478Y-51502D01*
X54520Y-51544D01*
X54871Y-51544D01*
X54871Y-51644D01*
X54821Y-51644D01*
X54520Y-51644D01*
X54478Y-51686D01*
X54478Y-51802D01*
X54503Y-51864D01*
X54551Y-51911D01*
X54584Y-51925D01*
X54505Y-51958D01*
X54479Y-51983D01*
X54412Y-51956D01*
X54251Y-51956D01*
X54102Y-52018D01*
X53987Y-52131D01*
X53925Y-52281D01*
X53925Y-52442D01*
X53987Y-52591D01*
X54100Y-52706D01*
X54250Y-52768D01*
X54411Y-52768D01*
X54504Y-52729D01*
X54505Y-52730D01*
X54596Y-52768D01*
X54695Y-52768D01*
X55245Y-52768D01*
X55337Y-52730D01*
X55353Y-52713D01*
X55391Y-52729D01*
X55552Y-52729D01*
X55701Y-52667D01*
X55816Y-52554D01*
X55878Y-52404D01*
X55878Y-53821D01*
X55841Y-53765D01*
X55841Y-53764D01*
X55605Y-53529D01*
X55509Y-53464D01*
X55489Y-53460D01*
X55394Y-53441D01*
X55364Y-53441D01*
X55364Y-53273D01*
X55364Y-53157D01*
X55339Y-53095D01*
X55291Y-53048D01*
X55230Y-53022D01*
X55163Y-53022D01*
X55013Y-53022D01*
X54971Y-53064D01*
X54971Y-53315D01*
X55322Y-53315D01*
X55364Y-53273D01*
X55364Y-53441D01*
X55348Y-53441D01*
X55322Y-53415D01*
X55021Y-53415D01*
X54971Y-53415D01*
X54871Y-53415D01*
X54871Y-53315D01*
X54871Y-53064D01*
X54829Y-53022D01*
X54679Y-53022D01*
X54612Y-53022D01*
X54551Y-53048D01*
X54503Y-53095D01*
X54478Y-53157D01*
X54478Y-53273D01*
X54520Y-53315D01*
X54871Y-53315D01*
X54871Y-53415D01*
X54821Y-53415D01*
X54520Y-53415D01*
X54494Y-53441D01*
X53855Y-53441D01*
X53855Y-53338D01*
X53817Y-53246D01*
X53747Y-53176D01*
X53656Y-53138D01*
X53557Y-53138D01*
X53357Y-53138D01*
X53265Y-53176D01*
X53198Y-53242D01*
X53139Y-53219D01*
X53098Y-53219D01*
X53056Y-53261D01*
X53056Y-53512D01*
X53056Y-53562D01*
X53056Y-53662D01*
X52956Y-53662D01*
X52956Y-53562D01*
X52956Y-53512D01*
X52956Y-53261D01*
X52914Y-53219D01*
X52873Y-53219D01*
X52813Y-53242D01*
X52806Y-53235D01*
X52806Y-52147D01*
X53367Y-51586D01*
X53455Y-51586D01*
X53655Y-51586D01*
X53747Y-51548D01*
X53817Y-51478D01*
X53832Y-51440D01*
X54085Y-51440D01*
X54210Y-51415D01*
X54211Y-51415D01*
X54317Y-51344D01*
X54428Y-51233D01*
X54450Y-51233D01*
X54599Y-51171D01*
X54703Y-51068D01*
X54745Y-51068D01*
X55195Y-51068D01*
X55287Y-51030D01*
X55357Y-50960D01*
X55395Y-50869D01*
X55395Y-50770D01*
X55395Y-50719D01*
X58730Y-50719D01*
X58730Y-53887D01*
X58730Y-53887D01*
G37*
G54D34*
X58730Y-53887D02*
X57832Y-53887D01*
X57832Y-52963D01*
X57832Y-52745D01*
X57751Y-52550D01*
X57751Y-51809D01*
X57751Y-51568D01*
X57751Y-51384D01*
X57751Y-51143D01*
X57726Y-51081D01*
X57678Y-51034D01*
X57617Y-51008D01*
X57550Y-51008D01*
X57375Y-51008D01*
X57333Y-51050D01*
X57333Y-51426D01*
X57709Y-51426D01*
X57751Y-51384D01*
X57751Y-51568D01*
X57709Y-51526D01*
X57333Y-51526D01*
X57333Y-51902D01*
X57375Y-51944D01*
X57550Y-51944D01*
X57617Y-51944D01*
X57678Y-51918D01*
X57726Y-51871D01*
X57751Y-51809D01*
X57751Y-52550D01*
X57748Y-52543D01*
X57594Y-52389D01*
X57392Y-52305D01*
X57233Y-52305D01*
X57233Y-51902D01*
X57233Y-51526D01*
X57233Y-51426D01*
X57233Y-51050D01*
X57191Y-51008D01*
X57016Y-51008D01*
X56949Y-51008D01*
X56888Y-51034D01*
X56840Y-51081D01*
X56815Y-51143D01*
X56815Y-51384D01*
X56857Y-51426D01*
X57233Y-51426D01*
X57233Y-51526D01*
X56857Y-51526D01*
X56815Y-51568D01*
X56815Y-51809D01*
X56840Y-51871D01*
X56888Y-51918D01*
X56949Y-51944D01*
X57016Y-51944D01*
X57191Y-51944D01*
X57233Y-51902D01*
X57233Y-52305D01*
X57174Y-52305D01*
X56972Y-52389D01*
X56818Y-52543D01*
X56734Y-52745D01*
X56734Y-52963D01*
X56818Y-53165D01*
X56972Y-53319D01*
X57174Y-53403D01*
X57392Y-53403D01*
X57594Y-53319D01*
X57748Y-53165D01*
X57832Y-52963D01*
X57832Y-53887D01*
X55911Y-53887D01*
X55906Y-53862D01*
X55905Y-53861D01*
X55883Y-53829D01*
X55878Y-53821D01*
X55878Y-52404D01*
X55878Y-52243D01*
X55816Y-52094D01*
X55703Y-51979D01*
X55553Y-51917D01*
X55392Y-51917D01*
X55315Y-51948D01*
X55258Y-51925D01*
X55291Y-51911D01*
X55339Y-51864D01*
X55364Y-51802D01*
X55364Y-51686D01*
X55364Y-51502D01*
X55364Y-51386D01*
X55339Y-51324D01*
X55291Y-51277D01*
X55230Y-51251D01*
X55163Y-51251D01*
X55013Y-51251D01*
X54971Y-51293D01*
X54971Y-51544D01*
X55322Y-51544D01*
X55364Y-51502D01*
X55364Y-51686D01*
X55322Y-51644D01*
X55021Y-51644D01*
X54971Y-51644D01*
X54871Y-51644D01*
X54871Y-51544D01*
X54871Y-51293D01*
X54829Y-51251D01*
X54679Y-51251D01*
X54612Y-51251D01*
X54551Y-51277D01*
X54503Y-51324D01*
X54478Y-51386D01*
X54478Y-51502D01*
X54520Y-51544D01*
X54871Y-51544D01*
X54871Y-51644D01*
X54821Y-51644D01*
X54520Y-51644D01*
X54478Y-51686D01*
X54478Y-51802D01*
X54503Y-51864D01*
X54551Y-51911D01*
X54584Y-51925D01*
X54505Y-51958D01*
X54479Y-51983D01*
X54412Y-51956D01*
X54251Y-51956D01*
X54102Y-52018D01*
X53987Y-52131D01*
X53925Y-52281D01*
X53925Y-52442D01*
X53987Y-52591D01*
X54100Y-52706D01*
X54250Y-52768D01*
X54411Y-52768D01*
X54504Y-52729D01*
X54505Y-52730D01*
X54596Y-52768D01*
X54695Y-52768D01*
X55245Y-52768D01*
X55337Y-52730D01*
X55353Y-52713D01*
X55391Y-52729D01*
X55552Y-52729D01*
X55701Y-52667D01*
X55816Y-52554D01*
X55878Y-52404D01*
X55878Y-53821D01*
X55841Y-53765D01*
X55841Y-53764D01*
X55605Y-53529D01*
X55509Y-53464D01*
X55489Y-53460D01*
X55394Y-53441D01*
X55364Y-53441D01*
X55364Y-53273D01*
X55364Y-53157D01*
X55339Y-53095D01*
X55291Y-53048D01*
X55230Y-53022D01*
X55163Y-53022D01*
X55013Y-53022D01*
X54971Y-53064D01*
X54971Y-53315D01*
X55322Y-53315D01*
X55364Y-53273D01*
X55364Y-53441D01*
X55348Y-53441D01*
X55322Y-53415D01*
X55021Y-53415D01*
X54971Y-53415D01*
X54871Y-53415D01*
X54871Y-53315D01*
X54871Y-53064D01*
X54829Y-53022D01*
X54679Y-53022D01*
X54612Y-53022D01*
X54551Y-53048D01*
X54503Y-53095D01*
X54478Y-53157D01*
X54478Y-53273D01*
X54520Y-53315D01*
X54871Y-53315D01*
X54871Y-53415D01*
X54821Y-53415D01*
X54520Y-53415D01*
X54494Y-53441D01*
X53855Y-53441D01*
X53855Y-53338D01*
X53817Y-53246D01*
X53747Y-53176D01*
X53656Y-53138D01*
X53557Y-53138D01*
X53357Y-53138D01*
X53265Y-53176D01*
X53198Y-53242D01*
X53139Y-53219D01*
X53098Y-53219D01*
X53056Y-53261D01*
X53056Y-53512D01*
X53056Y-53562D01*
X53056Y-53662D01*
X52956Y-53662D01*
X52956Y-53562D01*
X52956Y-53512D01*
X52956Y-53261D01*
X52914Y-53219D01*
X52873Y-53219D01*
X52813Y-53242D01*
X52806Y-53235D01*
X52806Y-52147D01*
X53367Y-51586D01*
X53455Y-51586D01*
X53655Y-51586D01*
X53747Y-51548D01*
X53817Y-51478D01*
X53832Y-51440D01*
X54085Y-51440D01*
X54210Y-51415D01*
X54211Y-51415D01*
X54317Y-51344D01*
X54428Y-51233D01*
X54450Y-51233D01*
X54599Y-51171D01*
X54703Y-51068D01*
X54745Y-51068D01*
X55195Y-51068D01*
X55287Y-51030D01*
X55357Y-50960D01*
X55395Y-50869D01*
X55395Y-50770D01*
X55395Y-50719D01*
X58730Y-50719D01*
X58730Y-53887D01*
M02*
