G04 (created by PCBNEW-RS274X (2012-apr-16-27)-stable) date Sun 20 Jan 2013 09:00:02 PM CET*
G01*
G70*
G90*
%MOIN*%
G04 Gerber Fmt 3.4, Leading zero omitted, Abs format*
%FSLAX34Y34*%
G04 APERTURE LIST*
%ADD10C,0.006000*%
%ADD11C,0.009900*%
%ADD12C,0.011800*%
%ADD13C,0.015000*%
%ADD14C,0.012000*%
%ADD15C,0.010000*%
G04 APERTURE END LIST*
G54D10*
G54D11*
X39819Y-53937D02*
X39838Y-53918D01*
X39875Y-53899D01*
X39969Y-53899D01*
X40007Y-53918D01*
X40025Y-53937D01*
X40044Y-53975D01*
X40044Y-54012D01*
X40025Y-54068D01*
X39800Y-54293D01*
X40044Y-54293D01*
X40288Y-53899D02*
X40325Y-53899D01*
X40363Y-53918D01*
X40382Y-53937D01*
X40400Y-53975D01*
X40419Y-54050D01*
X40419Y-54143D01*
X40400Y-54218D01*
X40382Y-54256D01*
X40363Y-54275D01*
X40325Y-54293D01*
X40288Y-54293D01*
X40250Y-54275D01*
X40232Y-54256D01*
X40213Y-54218D01*
X40194Y-54143D01*
X40194Y-54050D01*
X40213Y-53975D01*
X40232Y-53937D01*
X40250Y-53918D01*
X40288Y-53899D01*
X40794Y-54293D02*
X40569Y-54293D01*
X40682Y-54293D02*
X40682Y-53899D01*
X40644Y-53956D01*
X40607Y-53993D01*
X40569Y-54012D01*
X40925Y-53899D02*
X41169Y-53899D01*
X41038Y-54050D01*
X41094Y-54050D01*
X41132Y-54068D01*
X41150Y-54087D01*
X41169Y-54125D01*
X41169Y-54218D01*
X41150Y-54256D01*
X41132Y-54275D01*
X41094Y-54293D01*
X40982Y-54293D01*
X40944Y-54275D01*
X40925Y-54256D01*
X41338Y-54143D02*
X41638Y-54143D01*
X41901Y-53899D02*
X41938Y-53899D01*
X41976Y-53918D01*
X41995Y-53937D01*
X42013Y-53975D01*
X42032Y-54050D01*
X42032Y-54143D01*
X42013Y-54218D01*
X41995Y-54256D01*
X41976Y-54275D01*
X41938Y-54293D01*
X41901Y-54293D01*
X41863Y-54275D01*
X41845Y-54256D01*
X41826Y-54218D01*
X41807Y-54143D01*
X41807Y-54050D01*
X41826Y-53975D01*
X41845Y-53937D01*
X41863Y-53918D01*
X41901Y-53899D01*
X42407Y-54293D02*
X42182Y-54293D01*
X42295Y-54293D02*
X42295Y-53899D01*
X42257Y-53956D01*
X42220Y-53993D01*
X42182Y-54012D01*
X42576Y-54143D02*
X42876Y-54143D01*
X43045Y-53937D02*
X43064Y-53918D01*
X43101Y-53899D01*
X43195Y-53899D01*
X43233Y-53918D01*
X43251Y-53937D01*
X43270Y-53975D01*
X43270Y-54012D01*
X43251Y-54068D01*
X43026Y-54293D01*
X43270Y-54293D01*
X43514Y-53899D02*
X43551Y-53899D01*
X43589Y-53918D01*
X43608Y-53937D01*
X43626Y-53975D01*
X43645Y-54050D01*
X43645Y-54143D01*
X43626Y-54218D01*
X43608Y-54256D01*
X43589Y-54275D01*
X43551Y-54293D01*
X43514Y-54293D01*
X43476Y-54275D01*
X43458Y-54256D01*
X43439Y-54218D01*
X43420Y-54143D01*
X43420Y-54050D01*
X43439Y-53975D01*
X43458Y-53937D01*
X43476Y-53918D01*
X43514Y-53899D01*
X40411Y-54883D02*
X40280Y-54696D01*
X40186Y-54883D02*
X40186Y-54489D01*
X40336Y-54489D01*
X40373Y-54508D01*
X40392Y-54527D01*
X40411Y-54565D01*
X40411Y-54621D01*
X40392Y-54658D01*
X40373Y-54677D01*
X40336Y-54696D01*
X40186Y-54696D01*
X40730Y-54865D02*
X40692Y-54883D01*
X40617Y-54883D01*
X40580Y-54865D01*
X40561Y-54827D01*
X40561Y-54677D01*
X40580Y-54640D01*
X40617Y-54621D01*
X40692Y-54621D01*
X40730Y-54640D01*
X40749Y-54677D01*
X40749Y-54715D01*
X40561Y-54752D01*
X40880Y-54621D02*
X40974Y-54883D01*
X41068Y-54621D01*
X41724Y-54883D02*
X41499Y-54883D01*
X41612Y-54883D02*
X41612Y-54489D01*
X41574Y-54546D01*
X41537Y-54583D01*
X41499Y-54602D01*
G54D12*
X44996Y-53734D02*
X44996Y-53262D01*
X45199Y-53734D02*
X45199Y-53487D01*
X45176Y-53442D01*
X45131Y-53419D01*
X45064Y-53419D01*
X45019Y-53442D01*
X44996Y-53464D01*
X45356Y-53419D02*
X45536Y-53419D01*
X45423Y-53262D02*
X45423Y-53667D01*
X45446Y-53712D01*
X45491Y-53734D01*
X45536Y-53734D01*
X45626Y-53419D02*
X45806Y-53419D01*
X45693Y-53262D02*
X45693Y-53667D01*
X45716Y-53712D01*
X45761Y-53734D01*
X45806Y-53734D01*
X45963Y-53419D02*
X45963Y-53891D01*
X45963Y-53442D02*
X46008Y-53419D01*
X46098Y-53419D01*
X46143Y-53442D01*
X46166Y-53464D01*
X46188Y-53509D01*
X46188Y-53644D01*
X46166Y-53689D01*
X46143Y-53712D01*
X46098Y-53734D01*
X46008Y-53734D01*
X45963Y-53712D01*
X46390Y-53689D02*
X46413Y-53712D01*
X46390Y-53734D01*
X46368Y-53712D01*
X46390Y-53689D01*
X46390Y-53734D01*
X46390Y-53442D02*
X46413Y-53464D01*
X46390Y-53487D01*
X46368Y-53464D01*
X46390Y-53442D01*
X46390Y-53487D01*
X46953Y-53240D02*
X46548Y-53846D01*
X47447Y-53240D02*
X47042Y-53846D01*
X47806Y-53734D02*
X47806Y-53262D01*
X47806Y-53712D02*
X47761Y-53734D01*
X47671Y-53734D01*
X47626Y-53712D01*
X47603Y-53689D01*
X47581Y-53644D01*
X47581Y-53509D01*
X47603Y-53464D01*
X47626Y-53442D01*
X47671Y-53419D01*
X47761Y-53419D01*
X47806Y-53442D01*
X48030Y-53734D02*
X48030Y-53419D01*
X48030Y-53509D02*
X48053Y-53464D01*
X48075Y-53442D01*
X48120Y-53419D01*
X48165Y-53419D01*
X48502Y-53712D02*
X48457Y-53734D01*
X48367Y-53734D01*
X48322Y-53712D01*
X48300Y-53667D01*
X48300Y-53487D01*
X48322Y-53442D01*
X48367Y-53419D01*
X48457Y-53419D01*
X48502Y-53442D01*
X48525Y-53487D01*
X48525Y-53532D01*
X48300Y-53577D01*
X48727Y-53419D02*
X48727Y-53734D01*
X48727Y-53464D02*
X48750Y-53442D01*
X48795Y-53419D01*
X48862Y-53419D01*
X48907Y-53442D01*
X48930Y-53487D01*
X48930Y-53734D01*
X49154Y-53689D02*
X49177Y-53712D01*
X49154Y-53734D01*
X49132Y-53712D01*
X49154Y-53689D01*
X49154Y-53734D01*
X49582Y-53734D02*
X49582Y-53262D01*
X49582Y-53712D02*
X49537Y-53734D01*
X49447Y-53734D01*
X49402Y-53712D01*
X49379Y-53689D01*
X49357Y-53644D01*
X49357Y-53509D01*
X49379Y-53464D01*
X49402Y-53442D01*
X49447Y-53419D01*
X49537Y-53419D01*
X49582Y-53442D01*
X49806Y-53734D02*
X49806Y-53262D01*
X49851Y-53554D02*
X49986Y-53734D01*
X49986Y-53419D02*
X49806Y-53599D01*
G54D11*
X45004Y-54719D02*
X45004Y-54246D01*
X45206Y-54719D02*
X45206Y-54471D01*
X45184Y-54426D01*
X45139Y-54404D01*
X45071Y-54404D01*
X45026Y-54426D01*
X45004Y-54449D01*
X45364Y-54404D02*
X45544Y-54404D01*
X45432Y-54246D02*
X45432Y-54651D01*
X45454Y-54696D01*
X45499Y-54719D01*
X45544Y-54719D01*
X45634Y-54404D02*
X45814Y-54404D01*
X45702Y-54246D02*
X45702Y-54651D01*
X45724Y-54696D01*
X45769Y-54719D01*
X45814Y-54719D01*
X45972Y-54404D02*
X45972Y-54877D01*
X45972Y-54426D02*
X46017Y-54404D01*
X46107Y-54404D01*
X46152Y-54426D01*
X46174Y-54449D01*
X46197Y-54494D01*
X46197Y-54629D01*
X46174Y-54674D01*
X46152Y-54696D01*
X46107Y-54719D01*
X46017Y-54719D01*
X45972Y-54696D01*
X46377Y-54696D02*
X46422Y-54719D01*
X46512Y-54719D01*
X46557Y-54696D01*
X46580Y-54651D01*
X46580Y-54629D01*
X46557Y-54584D01*
X46512Y-54561D01*
X46445Y-54561D01*
X46400Y-54539D01*
X46377Y-54494D01*
X46377Y-54471D01*
X46400Y-54426D01*
X46445Y-54404D01*
X46512Y-54404D01*
X46557Y-54426D01*
X46783Y-54674D02*
X46805Y-54696D01*
X46783Y-54719D01*
X46760Y-54696D01*
X46783Y-54674D01*
X46783Y-54719D01*
X46783Y-54426D02*
X46805Y-54449D01*
X46783Y-54471D01*
X46760Y-54449D01*
X46783Y-54426D01*
X46783Y-54471D01*
X47345Y-54223D02*
X46940Y-54832D01*
X47841Y-54223D02*
X47436Y-54832D01*
X48202Y-54404D02*
X48202Y-54787D01*
X48180Y-54832D01*
X48157Y-54854D01*
X48112Y-54877D01*
X48045Y-54877D01*
X48000Y-54854D01*
X48202Y-54696D02*
X48157Y-54719D01*
X48067Y-54719D01*
X48022Y-54696D01*
X48000Y-54674D01*
X47977Y-54629D01*
X47977Y-54494D01*
X48000Y-54449D01*
X48022Y-54426D01*
X48067Y-54404D01*
X48157Y-54404D01*
X48202Y-54426D01*
X48428Y-54719D02*
X48428Y-54404D01*
X48428Y-54246D02*
X48405Y-54268D01*
X48428Y-54291D01*
X48450Y-54268D01*
X48428Y-54246D01*
X48428Y-54291D01*
X48585Y-54404D02*
X48765Y-54404D01*
X48653Y-54246D02*
X48653Y-54651D01*
X48675Y-54696D01*
X48720Y-54719D01*
X48765Y-54719D01*
X48923Y-54719D02*
X48923Y-54246D01*
X49125Y-54719D02*
X49125Y-54471D01*
X49103Y-54426D01*
X49058Y-54404D01*
X48990Y-54404D01*
X48945Y-54426D01*
X48923Y-54449D01*
X49553Y-54404D02*
X49553Y-54719D01*
X49351Y-54404D02*
X49351Y-54651D01*
X49373Y-54696D01*
X49418Y-54719D01*
X49486Y-54719D01*
X49531Y-54696D01*
X49553Y-54674D01*
X49779Y-54719D02*
X49779Y-54246D01*
X49779Y-54426D02*
X49824Y-54404D01*
X49914Y-54404D01*
X49959Y-54426D01*
X49981Y-54449D01*
X50004Y-54494D01*
X50004Y-54629D01*
X49981Y-54674D01*
X49959Y-54696D01*
X49914Y-54719D01*
X49824Y-54719D01*
X49779Y-54696D01*
X50207Y-54674D02*
X50229Y-54696D01*
X50207Y-54719D01*
X50184Y-54696D01*
X50207Y-54674D01*
X50207Y-54719D01*
X50634Y-54696D02*
X50589Y-54719D01*
X50499Y-54719D01*
X50454Y-54696D01*
X50432Y-54674D01*
X50409Y-54629D01*
X50409Y-54494D01*
X50432Y-54449D01*
X50454Y-54426D01*
X50499Y-54404D01*
X50589Y-54404D01*
X50634Y-54426D01*
X50904Y-54719D02*
X50859Y-54696D01*
X50837Y-54674D01*
X50814Y-54629D01*
X50814Y-54494D01*
X50837Y-54449D01*
X50859Y-54426D01*
X50904Y-54404D01*
X50972Y-54404D01*
X51017Y-54426D01*
X51039Y-54449D01*
X51062Y-54494D01*
X51062Y-54629D01*
X51039Y-54674D01*
X51017Y-54696D01*
X50972Y-54719D01*
X50904Y-54719D01*
X51265Y-54719D02*
X51265Y-54404D01*
X51265Y-54449D02*
X51287Y-54426D01*
X51332Y-54404D01*
X51400Y-54404D01*
X51445Y-54426D01*
X51467Y-54471D01*
X51467Y-54719D01*
X51467Y-54471D02*
X51490Y-54426D01*
X51535Y-54404D01*
X51602Y-54404D01*
X51648Y-54426D01*
X51670Y-54471D01*
X51670Y-54719D01*
X52233Y-54223D02*
X51828Y-54832D01*
X52594Y-54719D02*
X52594Y-54246D01*
X52594Y-54696D02*
X52549Y-54719D01*
X52459Y-54719D01*
X52414Y-54696D01*
X52392Y-54674D01*
X52369Y-54629D01*
X52369Y-54494D01*
X52392Y-54449D01*
X52414Y-54426D01*
X52459Y-54404D01*
X52549Y-54404D01*
X52594Y-54426D01*
X52820Y-54719D02*
X52820Y-54404D01*
X52820Y-54494D02*
X52842Y-54449D01*
X52865Y-54426D01*
X52910Y-54404D01*
X52955Y-54404D01*
X53293Y-54696D02*
X53248Y-54719D01*
X53158Y-54719D01*
X53113Y-54696D01*
X53090Y-54651D01*
X53090Y-54471D01*
X53113Y-54426D01*
X53158Y-54404D01*
X53248Y-54404D01*
X53293Y-54426D01*
X53315Y-54471D01*
X53315Y-54516D01*
X53090Y-54561D01*
X53518Y-54404D02*
X53518Y-54719D01*
X53518Y-54449D02*
X53540Y-54426D01*
X53585Y-54404D01*
X53653Y-54404D01*
X53698Y-54426D01*
X53720Y-54471D01*
X53720Y-54719D01*
X53946Y-54539D02*
X54306Y-54539D01*
X54734Y-54719D02*
X54734Y-54246D01*
X54734Y-54696D02*
X54689Y-54719D01*
X54599Y-54719D01*
X54554Y-54696D01*
X54532Y-54674D01*
X54509Y-54629D01*
X54509Y-54494D01*
X54532Y-54449D01*
X54554Y-54426D01*
X54599Y-54404D01*
X54689Y-54404D01*
X54734Y-54426D01*
X54960Y-54719D02*
X54960Y-54246D01*
X55005Y-54539D02*
X55140Y-54719D01*
X55140Y-54404D02*
X54960Y-54584D01*
X55680Y-54223D02*
X55275Y-54832D01*
X56064Y-54719D02*
X55839Y-54719D01*
X55839Y-54246D01*
X56424Y-54404D02*
X56424Y-54719D01*
X56222Y-54404D02*
X56222Y-54651D01*
X56244Y-54696D01*
X56289Y-54719D01*
X56357Y-54719D01*
X56402Y-54696D01*
X56424Y-54674D01*
X56852Y-54404D02*
X56852Y-54787D01*
X56830Y-54832D01*
X56807Y-54854D01*
X56762Y-54877D01*
X56695Y-54877D01*
X56650Y-54854D01*
X56852Y-54696D02*
X56807Y-54719D01*
X56717Y-54719D01*
X56672Y-54696D01*
X56650Y-54674D01*
X56627Y-54629D01*
X56627Y-54494D01*
X56650Y-54449D01*
X56672Y-54426D01*
X56717Y-54404D01*
X56807Y-54404D01*
X56852Y-54426D01*
X57280Y-54404D02*
X57280Y-54787D01*
X57258Y-54832D01*
X57235Y-54854D01*
X57190Y-54877D01*
X57123Y-54877D01*
X57078Y-54854D01*
X57280Y-54696D02*
X57235Y-54719D01*
X57145Y-54719D01*
X57100Y-54696D01*
X57078Y-54674D01*
X57055Y-54629D01*
X57055Y-54494D01*
X57078Y-54449D01*
X57100Y-54426D01*
X57145Y-54404D01*
X57235Y-54404D01*
X57280Y-54426D01*
X57708Y-54719D02*
X57708Y-54471D01*
X57686Y-54426D01*
X57641Y-54404D01*
X57551Y-54404D01*
X57506Y-54426D01*
X57708Y-54696D02*
X57663Y-54719D01*
X57551Y-54719D01*
X57506Y-54696D01*
X57483Y-54651D01*
X57483Y-54606D01*
X57506Y-54561D01*
X57551Y-54539D01*
X57663Y-54539D01*
X57708Y-54516D01*
X58136Y-54404D02*
X58136Y-54787D01*
X58114Y-54832D01*
X58091Y-54854D01*
X58046Y-54877D01*
X57979Y-54877D01*
X57934Y-54854D01*
X58136Y-54696D02*
X58091Y-54719D01*
X58001Y-54719D01*
X57956Y-54696D01*
X57934Y-54674D01*
X57911Y-54629D01*
X57911Y-54494D01*
X57934Y-54449D01*
X57956Y-54426D01*
X58001Y-54404D01*
X58091Y-54404D01*
X58136Y-54426D01*
X58542Y-54696D02*
X58497Y-54719D01*
X58407Y-54719D01*
X58362Y-54696D01*
X58339Y-54651D01*
X58339Y-54471D01*
X58362Y-54426D01*
X58407Y-54404D01*
X58497Y-54404D01*
X58542Y-54426D01*
X58564Y-54471D01*
X58564Y-54516D01*
X58339Y-54561D01*
G54D13*
X39370Y-40276D02*
X39370Y-54213D01*
X58110Y-39370D02*
X40276Y-39370D01*
X59055Y-54134D02*
X59055Y-40236D01*
X40276Y-55118D02*
X58228Y-55118D01*
X58229Y-55117D02*
X58307Y-55107D01*
X58385Y-55090D01*
X58460Y-55066D01*
X58533Y-55035D01*
X58604Y-54999D01*
X58670Y-54956D01*
X58733Y-54908D01*
X58792Y-54855D01*
X58845Y-54796D01*
X58893Y-54733D01*
X58936Y-54666D01*
X58972Y-54596D01*
X59003Y-54523D01*
X59027Y-54448D01*
X59044Y-54370D01*
X59054Y-54292D01*
X59058Y-54213D01*
X59054Y-54134D01*
X39371Y-54213D02*
X39375Y-54291D01*
X39385Y-54370D01*
X39402Y-54447D01*
X39426Y-54522D01*
X39456Y-54595D01*
X39493Y-54665D01*
X39535Y-54732D01*
X39583Y-54794D01*
X39637Y-54852D01*
X39695Y-54906D01*
X39757Y-54954D01*
X39824Y-54996D01*
X39894Y-55033D01*
X39967Y-55063D01*
X40042Y-55087D01*
X40119Y-55104D01*
X40198Y-55114D01*
X40276Y-55118D01*
X59055Y-40237D02*
X59048Y-40158D01*
X59034Y-40080D01*
X59014Y-40004D01*
X58987Y-39930D01*
X58953Y-39858D01*
X58914Y-39790D01*
X58868Y-39725D01*
X58817Y-39664D01*
X58762Y-39609D01*
X58701Y-39558D01*
X58636Y-39512D01*
X58568Y-39473D01*
X58496Y-39439D01*
X58422Y-39412D01*
X58346Y-39392D01*
X58268Y-39378D01*
X58189Y-39371D01*
X58111Y-39371D01*
X40276Y-39370D02*
X40198Y-39374D01*
X40119Y-39384D01*
X40042Y-39401D01*
X39967Y-39425D01*
X39894Y-39455D01*
X39824Y-39492D01*
X39757Y-39534D01*
X39694Y-39582D01*
X39636Y-39636D01*
X39582Y-39694D01*
X39534Y-39757D01*
X39492Y-39824D01*
X39455Y-39894D01*
X39425Y-39967D01*
X39401Y-40042D01*
X39384Y-40119D01*
X39374Y-40198D01*
X39370Y-40276D01*
G54D14*
X56807Y-40854D02*
X56807Y-39854D01*
X56807Y-39854D02*
X58807Y-39854D01*
X58807Y-39854D02*
X58807Y-40854D01*
X58807Y-40854D02*
X56807Y-40854D01*
X42803Y-39854D02*
X56803Y-39854D01*
X56803Y-39854D02*
X56803Y-40854D01*
X56803Y-40854D02*
X42803Y-40854D01*
X42803Y-40854D02*
X42803Y-39854D01*
G54D15*
X46410Y-41621D02*
X46410Y-41021D01*
X46410Y-41307D02*
X46639Y-41307D01*
X46639Y-41621D02*
X46639Y-41021D01*
X46829Y-41621D02*
X46829Y-41021D01*
X46924Y-41021D01*
X46982Y-41049D01*
X47020Y-41107D01*
X47039Y-41164D01*
X47058Y-41278D01*
X47058Y-41364D01*
X47039Y-41478D01*
X47020Y-41535D01*
X46982Y-41592D01*
X46924Y-41621D01*
X46829Y-41621D01*
X47401Y-41221D02*
X47401Y-41621D01*
X47305Y-40992D02*
X47210Y-41421D01*
X47458Y-41421D01*
X47782Y-41221D02*
X47782Y-41621D01*
X47686Y-40992D02*
X47591Y-41421D01*
X47839Y-41421D01*
X47953Y-41021D02*
X48220Y-41021D01*
X48048Y-41621D01*
X48429Y-41278D02*
X48391Y-41249D01*
X48372Y-41221D01*
X48353Y-41164D01*
X48353Y-41135D01*
X48372Y-41078D01*
X48391Y-41049D01*
X48429Y-41021D01*
X48506Y-41021D01*
X48544Y-41049D01*
X48563Y-41078D01*
X48582Y-41135D01*
X48582Y-41164D01*
X48563Y-41221D01*
X48544Y-41249D01*
X48506Y-41278D01*
X48429Y-41278D01*
X48391Y-41307D01*
X48372Y-41335D01*
X48353Y-41392D01*
X48353Y-41507D01*
X48372Y-41564D01*
X48391Y-41592D01*
X48429Y-41621D01*
X48506Y-41621D01*
X48544Y-41592D01*
X48563Y-41564D01*
X48582Y-41507D01*
X48582Y-41392D01*
X48563Y-41335D01*
X48544Y-41307D01*
X48506Y-41278D01*
X48829Y-41021D02*
X48868Y-41021D01*
X48906Y-41049D01*
X48925Y-41078D01*
X48944Y-41135D01*
X48963Y-41249D01*
X48963Y-41392D01*
X48944Y-41507D01*
X48925Y-41564D01*
X48906Y-41592D01*
X48868Y-41621D01*
X48829Y-41621D01*
X48791Y-41592D01*
X48772Y-41564D01*
X48753Y-41507D01*
X48734Y-41392D01*
X48734Y-41249D01*
X48753Y-41135D01*
X48772Y-41078D01*
X48791Y-41049D01*
X48829Y-41021D01*
M02*
