M48
;DRILL file {Pcbnew (2012-apr-16-27)-stable} date Sun 20 Jan 2013 09:00:12 PM CET
;FORMAT={-:-/ absolute / metric / decimal}
FMAT,2
METRIC,TZ
T1C0.300
T2C0.813
T3C1.016
T4C2.799
%
G90
G05
M71
T1
X108.001Y-113.000
X112.700Y-105.001
X114.699Y-127.599
X114.800Y-117.000
X115.700Y-116.401
X116.401Y-107.399
X116.401Y-108.699
X119.200Y-117.599
X120.000Y-116.500
X121.300Y-115.999
X121.801Y-111.300
X122.900Y-111.699
X125.700Y-123.800
X127.000Y-123.800
X127.099Y-126.299
X127.201Y-106.500
X127.201Y-120.000
X128.699Y-105.001
X129.601Y-123.401
X129.700Y-134.000
X129.700Y-137.500
X130.701Y-116.500
X130.701Y-118.600
X131.600Y-115.801
X132.100Y-125.900
X135.801Y-108.501
X137.000Y-108.001
X137.000Y-109.799
X137.399Y-106.299
X138.001Y-132.999
X138.100Y-129.101
X139.301Y-113.000
X139.301Y-114.300
X140.899Y-132.900
X141.000Y-111.699
X142.301Y-111.399
T2
X109.990Y-102.499
X112.530Y-102.499
X113.000Y-130.251
X113.000Y-133.751
X115.070Y-102.499
X117.610Y-102.499
X118.961Y-132.001
X120.150Y-102.499
X122.690Y-102.499
X124.041Y-132.001
X125.230Y-102.499
X127.770Y-102.499
X130.310Y-102.499
X132.850Y-102.499
X135.390Y-102.499
X137.930Y-102.499
X140.470Y-102.499
X143.010Y-102.499
X145.499Y-130.749
X145.499Y-134.249
X145.560Y-102.499
X148.100Y-102.499
T3
X102.151Y-120.729
X102.151Y-123.269
X104.691Y-120.729
X104.691Y-123.269
X107.231Y-120.729
X107.231Y-123.269
X109.771Y-120.729
X109.771Y-123.269
X109.959Y-111.730
X109.959Y-114.270
X112.311Y-120.729
X112.311Y-123.269
X112.499Y-111.730
X112.499Y-114.270
X114.851Y-120.729
X114.851Y-123.269
X115.039Y-111.730
X115.039Y-114.270
X146.500Y-106.190
X146.500Y-108.730
X146.500Y-111.270
X146.500Y-113.810
X146.500Y-118.189
X146.500Y-120.729
X146.500Y-123.269
X146.500Y-125.809
T4
X104.300Y-134.000
T4
X102.299Y-102.301G85X104.300Y-102.301
G05
T0
M30
