G04 (created by PCBNEW-RS274X (2012-apr-16-27)-stable) date Sun 20 Jan 2013 09:00:02 PM CET*
G01*
G70*
G90*
%MOIN*%
G04 Gerber Fmt 3.4, Leading zero omitted, Abs format*
%FSLAX34Y34*%
G04 APERTURE LIST*
%ADD10C,0.006000*%
%ADD11C,0.015000*%
%ADD12R,0.055000X0.055000*%
%ADD13C,0.055000*%
%ADD14R,0.060000X0.060000*%
%ADD15C,0.060000*%
%ADD16R,0.075000X0.075000*%
%ADD17C,0.075000*%
%ADD18O,0.120000X0.060000*%
%ADD19O,0.275600X0.196900*%
%ADD20C,0.157500*%
%ADD21C,0.031500*%
%ADD22C,0.015700*%
%ADD23C,0.009800*%
%ADD24C,0.010000*%
G04 APERTURE END LIST*
G54D10*
G54D11*
X39370Y-40276D02*
X39370Y-54213D01*
X58110Y-39370D02*
X40276Y-39370D01*
X59055Y-54134D02*
X59055Y-40236D01*
X40276Y-55118D02*
X58228Y-55118D01*
X58229Y-55117D02*
X58307Y-55107D01*
X58385Y-55090D01*
X58460Y-55066D01*
X58533Y-55035D01*
X58604Y-54999D01*
X58670Y-54956D01*
X58733Y-54908D01*
X58792Y-54855D01*
X58845Y-54796D01*
X58893Y-54733D01*
X58936Y-54666D01*
X58972Y-54596D01*
X59003Y-54523D01*
X59027Y-54448D01*
X59044Y-54370D01*
X59054Y-54292D01*
X59058Y-54213D01*
X59054Y-54134D01*
X39371Y-54213D02*
X39375Y-54291D01*
X39385Y-54370D01*
X39402Y-54447D01*
X39426Y-54522D01*
X39456Y-54595D01*
X39493Y-54665D01*
X39535Y-54732D01*
X39583Y-54794D01*
X39637Y-54852D01*
X39695Y-54906D01*
X39757Y-54954D01*
X39824Y-54996D01*
X39894Y-55033D01*
X39967Y-55063D01*
X40042Y-55087D01*
X40119Y-55104D01*
X40198Y-55114D01*
X40276Y-55118D01*
X59055Y-40237D02*
X59048Y-40158D01*
X59034Y-40080D01*
X59014Y-40004D01*
X58987Y-39930D01*
X58953Y-39858D01*
X58914Y-39790D01*
X58868Y-39725D01*
X58817Y-39664D01*
X58762Y-39609D01*
X58701Y-39558D01*
X58636Y-39512D01*
X58568Y-39473D01*
X58496Y-39439D01*
X58422Y-39412D01*
X58346Y-39392D01*
X58268Y-39378D01*
X58189Y-39371D01*
X58111Y-39371D01*
X40276Y-39370D02*
X40198Y-39374D01*
X40119Y-39384D01*
X40042Y-39401D01*
X39967Y-39425D01*
X39894Y-39455D01*
X39824Y-39492D01*
X39757Y-39534D01*
X39694Y-39582D01*
X39636Y-39636D01*
X39582Y-39694D01*
X39534Y-39757D01*
X39492Y-39824D01*
X39455Y-39894D01*
X39425Y-39967D01*
X39401Y-40042D01*
X39384Y-40119D01*
X39374Y-40198D01*
X39370Y-40276D01*
G54D12*
X57307Y-40354D03*
G54D13*
X58307Y-40354D03*
G54D12*
X43303Y-40354D03*
G54D13*
X44303Y-40354D03*
X45303Y-40354D03*
X46303Y-40354D03*
X47303Y-40354D03*
X48303Y-40354D03*
X49303Y-40354D03*
X50303Y-40354D03*
X51303Y-40354D03*
X52303Y-40354D03*
X53303Y-40354D03*
X54303Y-40354D03*
X55303Y-40354D03*
X56303Y-40354D03*
G54D14*
X40217Y-47531D03*
G54D15*
X40217Y-48531D03*
X41217Y-47531D03*
X41217Y-48531D03*
X42217Y-47531D03*
X42217Y-48531D03*
X43217Y-47531D03*
X43217Y-48531D03*
X44217Y-47531D03*
X44217Y-48531D03*
X45217Y-47531D03*
X45217Y-48531D03*
G54D16*
X48835Y-51969D03*
G54D17*
X46835Y-51969D03*
G54D14*
X57283Y-51476D03*
G54D15*
X57283Y-52854D03*
G54D14*
X44488Y-51280D03*
G54D15*
X44488Y-52658D03*
G54D14*
X45291Y-44988D03*
G54D15*
X45291Y-43988D03*
X44291Y-44988D03*
X44291Y-43988D03*
X43291Y-44988D03*
X43291Y-43988D03*
G54D18*
X57677Y-41807D03*
X57677Y-42807D03*
X57677Y-43807D03*
X57677Y-44807D03*
X57677Y-46531D03*
X57677Y-47531D03*
X57677Y-48531D03*
X57677Y-49531D03*
G54D19*
X40669Y-40276D03*
G54D20*
X41063Y-52756D03*
G54D21*
X50669Y-41339D03*
X52008Y-49567D03*
X44370Y-41339D03*
X54094Y-41850D03*
X50000Y-48740D03*
X51063Y-52756D03*
X45157Y-50236D03*
X51063Y-54134D03*
X53937Y-42520D03*
X55472Y-52323D03*
X54331Y-52362D03*
X54370Y-50827D03*
X50079Y-41929D03*
X50039Y-49724D03*
X54843Y-45000D03*
X45827Y-42795D03*
X53937Y-43228D03*
X42520Y-44488D03*
X54843Y-44488D03*
X55512Y-43976D03*
X48386Y-43976D03*
X49488Y-48740D03*
X51024Y-48583D03*
X50079Y-47244D03*
X51457Y-45866D03*
X53465Y-42717D03*
X45827Y-42283D03*
X51457Y-46693D03*
X45197Y-46063D03*
X45551Y-45827D03*
X46929Y-46299D03*
X47244Y-45866D03*
X51811Y-45591D03*
X47953Y-43819D03*
X56024Y-43858D03*
X47756Y-45669D03*
G54D22*
X54094Y-41850D02*
X53583Y-41339D01*
X44370Y-41339D02*
X45276Y-41339D01*
X55748Y-49567D02*
X52008Y-49567D01*
X56142Y-49173D02*
X55748Y-49567D01*
X56934Y-46531D02*
X56142Y-47323D01*
X56142Y-47323D02*
X56142Y-49173D01*
X45276Y-41339D02*
X50669Y-41339D01*
X57677Y-46531D02*
X56934Y-46531D01*
X45291Y-43988D02*
X45291Y-41339D01*
X45291Y-41339D02*
X45276Y-41339D01*
X53583Y-41339D02*
X50669Y-41339D01*
G54D23*
X50276Y-49016D02*
X50000Y-48740D01*
X57677Y-42807D02*
X57587Y-42807D01*
X55512Y-44882D02*
X55512Y-48780D01*
X57587Y-42807D02*
X55512Y-44882D01*
X55276Y-49016D02*
X50276Y-49016D01*
X55512Y-48780D02*
X55276Y-49016D01*
G54D22*
X51614Y-52362D02*
X51063Y-52756D01*
X54331Y-52362D02*
X54370Y-52323D01*
X51063Y-54134D02*
X51220Y-53977D01*
X57185Y-52854D02*
X56654Y-52323D01*
X58780Y-45276D02*
X58311Y-44807D01*
X44763Y-51969D02*
X44488Y-52244D01*
X53346Y-41929D02*
X50079Y-41929D01*
X45630Y-52756D02*
X51063Y-52756D01*
X45039Y-51969D02*
X44763Y-51969D01*
X44488Y-52244D02*
X44488Y-52658D01*
X53937Y-42520D02*
X53346Y-41929D01*
X58071Y-52323D02*
X58071Y-49925D01*
X58780Y-49055D02*
X58780Y-45276D01*
X56654Y-52323D02*
X55472Y-52323D01*
X51220Y-53977D02*
X51063Y-52756D01*
X58304Y-49531D02*
X58780Y-49055D01*
X54370Y-52323D02*
X54370Y-50827D01*
X45532Y-52658D02*
X45630Y-52756D01*
X57677Y-49531D02*
X58304Y-49531D01*
X58311Y-44807D02*
X57677Y-44807D01*
X44488Y-52658D02*
X45532Y-52658D01*
X57283Y-52854D02*
X57185Y-52854D01*
X45039Y-51969D02*
X45039Y-51929D01*
X45039Y-51929D02*
X45039Y-51969D01*
X57540Y-52854D02*
X58071Y-52323D01*
X45117Y-51969D02*
X45039Y-51969D01*
X46810Y-50276D02*
X45117Y-51969D01*
X49487Y-50276D02*
X46810Y-50276D01*
X50039Y-49724D02*
X49487Y-50276D01*
X45157Y-50236D02*
X45039Y-50354D01*
X57283Y-52854D02*
X57540Y-52854D01*
X54331Y-52362D02*
X51614Y-52362D01*
X58071Y-49925D02*
X57677Y-49531D01*
G54D23*
X45291Y-44988D02*
X54831Y-44988D01*
X54831Y-44988D02*
X54843Y-45000D01*
X53937Y-43228D02*
X51496Y-43228D01*
X51063Y-42795D02*
X46890Y-42795D01*
X46890Y-42795D02*
X45827Y-42795D01*
X51496Y-43228D02*
X51063Y-42795D01*
X44291Y-44988D02*
X44279Y-44988D01*
X44279Y-44988D02*
X43779Y-44488D01*
X44291Y-44961D02*
X44764Y-44488D01*
X44764Y-44488D02*
X54843Y-44488D01*
X43779Y-44488D02*
X42520Y-44488D01*
X44291Y-44988D02*
X44291Y-44961D01*
X48386Y-43976D02*
X49646Y-43976D01*
X49646Y-43976D02*
X55512Y-43976D01*
X50000Y-49252D02*
X49488Y-48740D01*
X57334Y-43807D02*
X55787Y-45354D01*
X55787Y-45354D02*
X55787Y-48898D01*
X55433Y-49252D02*
X50000Y-49252D01*
X55787Y-48898D02*
X55433Y-49252D01*
X57677Y-43807D02*
X57334Y-43807D01*
X49961Y-46929D02*
X49252Y-47638D01*
X51024Y-48583D02*
X50709Y-48268D01*
X50709Y-48268D02*
X50709Y-47284D01*
X50709Y-47284D02*
X50354Y-46929D01*
X50354Y-46929D02*
X49961Y-46929D01*
X48976Y-47914D02*
X47402Y-49488D01*
X42717Y-49134D02*
X42717Y-48031D01*
X43071Y-49488D02*
X42717Y-49134D01*
X42717Y-48031D02*
X42217Y-47531D01*
X47402Y-49488D02*
X43071Y-49488D01*
X49252Y-47638D02*
X48976Y-47914D01*
X49764Y-48071D02*
X50079Y-47756D01*
X49409Y-48071D02*
X49764Y-48071D01*
X42217Y-49343D02*
X42598Y-49724D01*
X47756Y-49724D02*
X49409Y-48071D01*
X42598Y-49724D02*
X47756Y-49724D01*
X42217Y-48531D02*
X42217Y-49343D01*
X50079Y-47756D02*
X50079Y-47244D01*
X51457Y-45866D02*
X48543Y-45866D01*
X48543Y-45866D02*
X47598Y-46811D01*
X47598Y-46811D02*
X43937Y-46811D01*
X43937Y-46811D02*
X43217Y-47531D01*
X52756Y-42283D02*
X53190Y-42717D01*
X53190Y-42717D02*
X53465Y-42717D01*
X45827Y-42283D02*
X52756Y-42283D01*
X44217Y-47531D02*
X44224Y-47531D01*
X49881Y-46693D02*
X51457Y-46693D01*
X48543Y-48031D02*
X49881Y-46693D01*
X44724Y-48031D02*
X48543Y-48031D01*
X44224Y-47531D02*
X44724Y-48031D01*
X45158Y-46024D02*
X45197Y-46063D01*
X45079Y-46024D02*
X45158Y-46024D01*
X40512Y-45984D02*
X42086Y-45984D01*
X42559Y-45984D02*
X45039Y-45984D01*
X42086Y-45984D02*
X42559Y-45984D01*
X45039Y-45984D02*
X45079Y-46024D01*
X40217Y-46280D02*
X40512Y-45984D01*
X40217Y-47531D02*
X40217Y-46280D01*
X45551Y-45827D02*
X45472Y-45748D01*
X45472Y-45748D02*
X42638Y-45748D01*
X42638Y-45748D02*
X42166Y-45748D01*
X42166Y-45748D02*
X40039Y-45748D01*
X40039Y-45748D02*
X39646Y-46141D01*
X39646Y-46141D02*
X39646Y-47960D01*
X39646Y-47960D02*
X40217Y-48531D01*
X44568Y-46575D02*
X41339Y-46575D01*
X41339Y-46575D02*
X41217Y-46696D01*
X45945Y-46299D02*
X45669Y-46575D01*
X45669Y-46575D02*
X44961Y-46575D01*
X44961Y-46575D02*
X44568Y-46575D01*
X41217Y-47531D02*
X41217Y-46696D01*
X46929Y-46299D02*
X45945Y-46299D01*
X41217Y-48531D02*
X41169Y-48531D01*
X46102Y-45866D02*
X47244Y-45866D01*
X45590Y-46378D02*
X46102Y-45866D01*
X47244Y-45866D02*
X47165Y-45945D01*
X44645Y-46378D02*
X45039Y-46378D01*
X45039Y-46378D02*
X45590Y-46378D01*
X40709Y-48071D02*
X40709Y-46496D01*
X41169Y-48531D02*
X40709Y-48071D01*
X40709Y-46496D02*
X40827Y-46378D01*
X40827Y-46378D02*
X44645Y-46378D01*
X43701Y-47323D02*
X44016Y-47008D01*
X44016Y-47008D02*
X47717Y-47008D01*
X48505Y-46220D02*
X51654Y-46220D01*
X43701Y-48031D02*
X43701Y-47323D01*
X47717Y-47008D02*
X48505Y-46220D01*
X44201Y-48531D02*
X43701Y-48031D01*
X51811Y-46063D02*
X51811Y-45591D01*
X44217Y-48531D02*
X44201Y-48531D01*
X51654Y-46220D02*
X51811Y-46063D01*
X48111Y-43661D02*
X47953Y-43819D01*
X55827Y-43661D02*
X48111Y-43661D01*
X56024Y-43858D02*
X55827Y-43661D01*
X43291Y-44988D02*
X43291Y-45023D01*
X47599Y-45512D02*
X47756Y-45669D01*
X43780Y-45512D02*
X47599Y-45512D01*
X43291Y-45023D02*
X43780Y-45512D01*
G54D10*
G36*
X58730Y-54116D02*
X58700Y-54386D01*
X58592Y-54583D01*
X58428Y-54714D01*
X58428Y-49653D01*
X58400Y-49581D01*
X57727Y-49581D01*
X57727Y-49999D01*
X58077Y-49999D01*
X58248Y-49925D01*
X58378Y-49791D01*
X58428Y-49653D01*
X58428Y-54714D01*
X58415Y-54725D01*
X58182Y-54793D01*
X57832Y-54793D01*
X57832Y-51826D01*
X57832Y-51727D01*
X57832Y-51127D01*
X57794Y-51035D01*
X57724Y-50965D01*
X57633Y-50927D01*
X57627Y-50927D01*
X57627Y-49999D01*
X57627Y-49581D01*
X56954Y-49581D01*
X56926Y-49653D01*
X56976Y-49791D01*
X57106Y-49925D01*
X57277Y-49999D01*
X57627Y-49999D01*
X57627Y-50927D01*
X57534Y-50927D01*
X56934Y-50927D01*
X56842Y-50965D01*
X56772Y-51035D01*
X56734Y-51126D01*
X56734Y-51225D01*
X56734Y-51825D01*
X56772Y-51917D01*
X56842Y-51987D01*
X56933Y-52025D01*
X57032Y-52025D01*
X57632Y-52025D01*
X57724Y-51987D01*
X57794Y-51917D01*
X57832Y-51826D01*
X57832Y-54793D01*
X57746Y-54793D01*
X57746Y-52914D01*
X57734Y-52732D01*
X57688Y-52621D01*
X57617Y-52590D01*
X57547Y-52660D01*
X57547Y-52520D01*
X57516Y-52449D01*
X57343Y-52391D01*
X57161Y-52403D01*
X57050Y-52449D01*
X57019Y-52520D01*
X57283Y-52783D01*
X57547Y-52520D01*
X57547Y-52660D01*
X57354Y-52854D01*
X57617Y-53118D01*
X57688Y-53087D01*
X57746Y-52914D01*
X57746Y-54793D01*
X57547Y-54793D01*
X57547Y-53188D01*
X57283Y-52925D01*
X57212Y-52995D01*
X57212Y-52854D01*
X56949Y-52590D01*
X56878Y-52621D01*
X56820Y-52794D01*
X56832Y-52976D01*
X56878Y-53087D01*
X56949Y-53118D01*
X57212Y-52854D01*
X57212Y-52995D01*
X57019Y-53188D01*
X57050Y-53259D01*
X57223Y-53317D01*
X57405Y-53305D01*
X57516Y-53259D01*
X57547Y-53188D01*
X57547Y-54793D01*
X49459Y-54793D01*
X49459Y-52394D01*
X49459Y-52295D01*
X49459Y-51545D01*
X49421Y-51453D01*
X49351Y-51383D01*
X49260Y-51345D01*
X49161Y-51345D01*
X48411Y-51345D01*
X48319Y-51383D01*
X48249Y-51453D01*
X48211Y-51544D01*
X48211Y-51643D01*
X48211Y-52393D01*
X48249Y-52485D01*
X48319Y-52555D01*
X48410Y-52593D01*
X48509Y-52593D01*
X49259Y-52593D01*
X49351Y-52555D01*
X49421Y-52485D01*
X49459Y-52394D01*
X49459Y-54793D01*
X47460Y-54793D01*
X47460Y-52094D01*
X47460Y-51845D01*
X47365Y-51615D01*
X47189Y-51439D01*
X46960Y-51344D01*
X46711Y-51344D01*
X46481Y-51439D01*
X46305Y-51615D01*
X46210Y-51844D01*
X46210Y-52093D01*
X46305Y-52323D01*
X46481Y-52499D01*
X46710Y-52594D01*
X46959Y-52594D01*
X47189Y-52499D01*
X47365Y-52323D01*
X47460Y-52094D01*
X47460Y-54793D01*
X45037Y-54793D01*
X45037Y-51630D01*
X45037Y-51531D01*
X45037Y-50931D01*
X44999Y-50839D01*
X44929Y-50769D01*
X44838Y-50731D01*
X44739Y-50731D01*
X44139Y-50731D01*
X44047Y-50769D01*
X43977Y-50839D01*
X43939Y-50930D01*
X43939Y-51029D01*
X43939Y-51629D01*
X43977Y-51721D01*
X44047Y-51791D01*
X44138Y-51829D01*
X44237Y-51829D01*
X44837Y-51829D01*
X44929Y-51791D01*
X44999Y-51721D01*
X45037Y-51630D01*
X45037Y-54793D01*
X44951Y-54793D01*
X44951Y-52718D01*
X44939Y-52536D01*
X44893Y-52425D01*
X44822Y-52394D01*
X44752Y-52464D01*
X44752Y-52324D01*
X44721Y-52253D01*
X44548Y-52195D01*
X44366Y-52207D01*
X44255Y-52253D01*
X44224Y-52324D01*
X44488Y-52587D01*
X44752Y-52324D01*
X44752Y-52464D01*
X44559Y-52658D01*
X44822Y-52922D01*
X44893Y-52891D01*
X44951Y-52718D01*
X44951Y-54793D01*
X44752Y-54793D01*
X44752Y-52992D01*
X44488Y-52729D01*
X44417Y-52799D01*
X44417Y-52658D01*
X44154Y-52394D01*
X44083Y-52425D01*
X44025Y-52598D01*
X44037Y-52780D01*
X44083Y-52891D01*
X44154Y-52922D01*
X44417Y-52658D01*
X44417Y-52799D01*
X44224Y-52992D01*
X44255Y-53063D01*
X44428Y-53121D01*
X44610Y-53109D01*
X44721Y-53063D01*
X44752Y-52992D01*
X44752Y-54793D01*
X42100Y-54793D01*
X42100Y-52963D01*
X42100Y-52551D01*
X41943Y-52170D01*
X41651Y-51878D01*
X41270Y-51719D01*
X40858Y-51719D01*
X40477Y-51876D01*
X40185Y-52168D01*
X40026Y-52549D01*
X40026Y-52961D01*
X40183Y-53342D01*
X40475Y-53634D01*
X40856Y-53793D01*
X41268Y-53793D01*
X41649Y-53636D01*
X41941Y-53344D01*
X42100Y-52963D01*
X42100Y-54793D01*
X40309Y-54793D01*
X40056Y-54742D01*
X39870Y-54619D01*
X39747Y-54434D01*
X39695Y-54174D01*
X39695Y-49302D01*
X41918Y-49302D01*
X41918Y-49343D01*
X41937Y-49438D01*
X41941Y-49458D01*
X42006Y-49554D01*
X42386Y-49935D01*
X42387Y-49935D01*
X42451Y-49977D01*
X42483Y-49999D01*
X42484Y-50000D01*
X42597Y-50022D01*
X42598Y-50023D01*
X47756Y-50023D01*
X47756Y-50022D01*
X47851Y-50003D01*
X47870Y-50000D01*
X47871Y-50000D01*
X47967Y-49935D01*
X48600Y-49302D01*
X49628Y-49302D01*
X49789Y-49463D01*
X49885Y-49528D01*
X49886Y-49528D01*
X49904Y-49531D01*
X50000Y-49551D01*
X51602Y-49551D01*
X51602Y-49647D01*
X51664Y-49796D01*
X51777Y-49911D01*
X51927Y-49973D01*
X52088Y-49973D01*
X52237Y-49911D01*
X52253Y-49895D01*
X55748Y-49895D01*
X55873Y-49870D01*
X55874Y-49870D01*
X55980Y-49799D01*
X56374Y-49405D01*
X56442Y-49302D01*
X56964Y-49302D01*
X56926Y-49409D01*
X56954Y-49481D01*
X57577Y-49481D01*
X57627Y-49481D01*
X57727Y-49481D01*
X57777Y-49481D01*
X58400Y-49481D01*
X58428Y-49409D01*
X58389Y-49302D01*
X58730Y-49302D01*
X58730Y-54116D01*
X58730Y-54116D01*
G37*
G54D24*
X58730Y-54116D02*
X58700Y-54386D01*
X58592Y-54583D01*
X58428Y-54714D01*
X58428Y-49653D01*
X58400Y-49581D01*
X57727Y-49581D01*
X57727Y-49999D01*
X58077Y-49999D01*
X58248Y-49925D01*
X58378Y-49791D01*
X58428Y-49653D01*
X58428Y-54714D01*
X58415Y-54725D01*
X58182Y-54793D01*
X57832Y-54793D01*
X57832Y-51826D01*
X57832Y-51727D01*
X57832Y-51127D01*
X57794Y-51035D01*
X57724Y-50965D01*
X57633Y-50927D01*
X57627Y-50927D01*
X57627Y-49999D01*
X57627Y-49581D01*
X56954Y-49581D01*
X56926Y-49653D01*
X56976Y-49791D01*
X57106Y-49925D01*
X57277Y-49999D01*
X57627Y-49999D01*
X57627Y-50927D01*
X57534Y-50927D01*
X56934Y-50927D01*
X56842Y-50965D01*
X56772Y-51035D01*
X56734Y-51126D01*
X56734Y-51225D01*
X56734Y-51825D01*
X56772Y-51917D01*
X56842Y-51987D01*
X56933Y-52025D01*
X57032Y-52025D01*
X57632Y-52025D01*
X57724Y-51987D01*
X57794Y-51917D01*
X57832Y-51826D01*
X57832Y-54793D01*
X57746Y-54793D01*
X57746Y-52914D01*
X57734Y-52732D01*
X57688Y-52621D01*
X57617Y-52590D01*
X57547Y-52660D01*
X57547Y-52520D01*
X57516Y-52449D01*
X57343Y-52391D01*
X57161Y-52403D01*
X57050Y-52449D01*
X57019Y-52520D01*
X57283Y-52783D01*
X57547Y-52520D01*
X57547Y-52660D01*
X57354Y-52854D01*
X57617Y-53118D01*
X57688Y-53087D01*
X57746Y-52914D01*
X57746Y-54793D01*
X57547Y-54793D01*
X57547Y-53188D01*
X57283Y-52925D01*
X57212Y-52995D01*
X57212Y-52854D01*
X56949Y-52590D01*
X56878Y-52621D01*
X56820Y-52794D01*
X56832Y-52976D01*
X56878Y-53087D01*
X56949Y-53118D01*
X57212Y-52854D01*
X57212Y-52995D01*
X57019Y-53188D01*
X57050Y-53259D01*
X57223Y-53317D01*
X57405Y-53305D01*
X57516Y-53259D01*
X57547Y-53188D01*
X57547Y-54793D01*
X49459Y-54793D01*
X49459Y-52394D01*
X49459Y-52295D01*
X49459Y-51545D01*
X49421Y-51453D01*
X49351Y-51383D01*
X49260Y-51345D01*
X49161Y-51345D01*
X48411Y-51345D01*
X48319Y-51383D01*
X48249Y-51453D01*
X48211Y-51544D01*
X48211Y-51643D01*
X48211Y-52393D01*
X48249Y-52485D01*
X48319Y-52555D01*
X48410Y-52593D01*
X48509Y-52593D01*
X49259Y-52593D01*
X49351Y-52555D01*
X49421Y-52485D01*
X49459Y-52394D01*
X49459Y-54793D01*
X47460Y-54793D01*
X47460Y-52094D01*
X47460Y-51845D01*
X47365Y-51615D01*
X47189Y-51439D01*
X46960Y-51344D01*
X46711Y-51344D01*
X46481Y-51439D01*
X46305Y-51615D01*
X46210Y-51844D01*
X46210Y-52093D01*
X46305Y-52323D01*
X46481Y-52499D01*
X46710Y-52594D01*
X46959Y-52594D01*
X47189Y-52499D01*
X47365Y-52323D01*
X47460Y-52094D01*
X47460Y-54793D01*
X45037Y-54793D01*
X45037Y-51630D01*
X45037Y-51531D01*
X45037Y-50931D01*
X44999Y-50839D01*
X44929Y-50769D01*
X44838Y-50731D01*
X44739Y-50731D01*
X44139Y-50731D01*
X44047Y-50769D01*
X43977Y-50839D01*
X43939Y-50930D01*
X43939Y-51029D01*
X43939Y-51629D01*
X43977Y-51721D01*
X44047Y-51791D01*
X44138Y-51829D01*
X44237Y-51829D01*
X44837Y-51829D01*
X44929Y-51791D01*
X44999Y-51721D01*
X45037Y-51630D01*
X45037Y-54793D01*
X44951Y-54793D01*
X44951Y-52718D01*
X44939Y-52536D01*
X44893Y-52425D01*
X44822Y-52394D01*
X44752Y-52464D01*
X44752Y-52324D01*
X44721Y-52253D01*
X44548Y-52195D01*
X44366Y-52207D01*
X44255Y-52253D01*
X44224Y-52324D01*
X44488Y-52587D01*
X44752Y-52324D01*
X44752Y-52464D01*
X44559Y-52658D01*
X44822Y-52922D01*
X44893Y-52891D01*
X44951Y-52718D01*
X44951Y-54793D01*
X44752Y-54793D01*
X44752Y-52992D01*
X44488Y-52729D01*
X44417Y-52799D01*
X44417Y-52658D01*
X44154Y-52394D01*
X44083Y-52425D01*
X44025Y-52598D01*
X44037Y-52780D01*
X44083Y-52891D01*
X44154Y-52922D01*
X44417Y-52658D01*
X44417Y-52799D01*
X44224Y-52992D01*
X44255Y-53063D01*
X44428Y-53121D01*
X44610Y-53109D01*
X44721Y-53063D01*
X44752Y-52992D01*
X44752Y-54793D01*
X42100Y-54793D01*
X42100Y-52963D01*
X42100Y-52551D01*
X41943Y-52170D01*
X41651Y-51878D01*
X41270Y-51719D01*
X40858Y-51719D01*
X40477Y-51876D01*
X40185Y-52168D01*
X40026Y-52549D01*
X40026Y-52961D01*
X40183Y-53342D01*
X40475Y-53634D01*
X40856Y-53793D01*
X41268Y-53793D01*
X41649Y-53636D01*
X41941Y-53344D01*
X42100Y-52963D01*
X42100Y-54793D01*
X40309Y-54793D01*
X40056Y-54742D01*
X39870Y-54619D01*
X39747Y-54434D01*
X39695Y-54174D01*
X39695Y-49302D01*
X41918Y-49302D01*
X41918Y-49343D01*
X41937Y-49438D01*
X41941Y-49458D01*
X42006Y-49554D01*
X42386Y-49935D01*
X42387Y-49935D01*
X42451Y-49977D01*
X42483Y-49999D01*
X42484Y-50000D01*
X42597Y-50022D01*
X42598Y-50023D01*
X47756Y-50023D01*
X47756Y-50022D01*
X47851Y-50003D01*
X47870Y-50000D01*
X47871Y-50000D01*
X47967Y-49935D01*
X48600Y-49302D01*
X49628Y-49302D01*
X49789Y-49463D01*
X49885Y-49528D01*
X49886Y-49528D01*
X49904Y-49531D01*
X50000Y-49551D01*
X51602Y-49551D01*
X51602Y-49647D01*
X51664Y-49796D01*
X51777Y-49911D01*
X51927Y-49973D01*
X52088Y-49973D01*
X52237Y-49911D01*
X52253Y-49895D01*
X55748Y-49895D01*
X55873Y-49870D01*
X55874Y-49870D01*
X55980Y-49799D01*
X56374Y-49405D01*
X56442Y-49302D01*
X56964Y-49302D01*
X56926Y-49409D01*
X56954Y-49481D01*
X57577Y-49481D01*
X57627Y-49481D01*
X57727Y-49481D01*
X57777Y-49481D01*
X58400Y-49481D01*
X58428Y-49409D01*
X58389Y-49302D01*
X58730Y-49302D01*
X58730Y-54116D01*
M02*
